<svg style="padding: 10px;border-radius: 10px;" height="100" viewBox="0 -2 512 511" width="100" xmlns="http://www.w3.org/2000/svg"><path d="m498.042969 177.386719h-476.042969v76.058593h476.042969c7.707031 0 13.957031-6.25 13.957031-13.957031v-48.144531c0-7.707031-6.246094-13.957031-13.957031-13.957031zm0 0" fill="#5861c7"/><path d="m498.042969 177.390625h-476.042969v14h476.042969c7.707031 0 13.957031 6.25 13.957031 13.957031v-14c0-7.710937-6.25-13.957031-13.957031-13.957031zm0 0" fill="#8f95e6"/><path d="m478.164062.859375-475.441406 109.765625 17.109375 74.109375 475.441407-109.761719c7.507812-1.734375 12.191406-9.230468 10.457031-16.742187l-10.828125-46.910157c-1.734375-7.507812-9.226563-12.195312-16.738282-10.460937zm0 0" fill="#5861c7"/><path d="m481.1875 14.164062c7.535156-1.742187 15.050781 2.957032 16.792969 10.492188l-3.078125-13.335938c-1.734375-7.507812-9.226563-12.195312-16.742188-10.460937l-475.4375 109.765625 3.066406 13.292969zm0 0" fill="#8f95e6"/><path d="m446.023438 508.429688h-380.046876c-24.589843 0-44.523437-19.933594-44.523437-44.523438v-210.460938h469.09375v210.464844c0 24.585938-19.933594 44.519532-44.523437 44.519532zm0 0" fill="#6770e6"/><path d="m446.023438 494.429688h-380.046876c-24.589843 0-44.523437-19.933594-44.523437-44.523438v14c0 24.589844 19.933594 44.523438 44.523437 44.523438h380.046876c24.589843 0 44.523437-19.933594 44.523437-44.523438v-14c0 24.589844-19.933594 44.523438-44.523437 44.523438zm0 0" fill="#5861c7"/><path d="m498.042969 177.390625h-40.167969l-60 76.054687h54.125l56.375-71.460937c-2.554688-2.816406-6.230469-4.59375-10.332031-4.59375zm0 0" fill="#ffefe4"/><path d="m498.042969 191.390625c.925781 0 1.828125.09375 2.703125.265625l7.628906-9.671875c-.316406-.347656-.652344-.679687-1-.996094-.007812-.003906-.011719-.011719-.015625-.015625-.339844-.304687-.695313-.59375-1.058594-.863281-.023437-.015625-.046875-.03125-.070312-.046875-.34375-.253906-.703125-.488281-1.074219-.710938-.046875-.027343-.09375-.058593-.140625-.082031-.347656-.203125-.703125-.382812-1.066406-.554687-.078125-.035156-.152344-.074219-.226563-.109375-.339844-.152344-.691406-.285157-1.042968-.410157-.105469-.035156-.207032-.082031-.308594-.113281-.335938-.109375-.679688-.199219-1.023438-.285156-.128906-.03125-.25-.070313-.382812-.097656-.34375-.074219-.695313-.121094-1.050782-.171875-.132812-.015625-.257812-.042969-.390624-.058594-.484376-.050781-.976563-.078125-1.476563-.078125h-40.167969l-11.042968 14zm0 0" fill="#ffefe4"/><path d="m404.164062 177.386719h-54.121093l-60 76.058593h54.121093zm0 0" fill="#ffefe4"/><path d="m339 191.390625h54.121094l11.042968-14h-54.121093zm0 0" fill="#fff7f2"/><path d="m295.601562 177.386719h-54.125l-60 76.058593h54.125zm0 0" fill="#ffefe4"/><path d="m230.433594 191.390625h54.125l11.042968-14h-54.121093zm0 0" fill="#fff7f2"/><path d="m187.863281 177.386719h-54.125l-60 76.058593h54.125zm0 0" fill="#ffefe4"/><path d="m122.695312 191.390625h54.121094l11.046875-14h-54.125zm0 0" fill="#fff7f2"/><path d="m433.300781 11.21875-52.738281 12.175781 75.574219 60.609375 39.136719-9.035156c3.996093-.921875 7.175781-3.484375 9.03125-6.800781zm0 0" fill="#ffefe4"/><path d="m394.117188 34.265625 52.738281-12.175781-13.554688-10.871094-32.894531 7.59375-19.84375 4.582031zm0 0" fill="#fff7f2"/><path d="m403.800781 96.089844-52.734375 12.171875-75.574218-60.609375 52.738281-12.175782zm0 0" fill="#ffefe4"/><path d="m328.230469 35.476562-52.738281 12.175782 13.554687 10.867187 52.738281-12.171875zm0 0" fill="#fff7f2"/><path d="m298.019531 120.507812-52.734375 12.175782-75.574218-60.609375 52.738281-12.175781zm0 0" fill="#ffefe4"/><path d="m222.449219 59.898438-52.738281 12.175781 13.558593 10.867187 52.734375-12.175781zm0 0" fill="#fff7f2"/><path d="m193.042969 144.746094-52.738281 12.175781-75.570313-60.613281 52.734375-12.175782zm0 0" fill="#ffefe4"/><path d="m140.304688 156.921875 52.738281-12.175781-75.574219-60.613282-52.734375 12.175782zm0 0" fill="#fff7f2"/><path d="m134.074219 177.386719h-54.121094l-60 76.058593h54.121094zm0 0" fill="#ffefe4"/><path d="m143.765625 253.445312h-130.242187c-7.46875 0-13.523438-6.050781-13.523438-13.523437v-130.238281c0-7.472656 6.054688-13.523438 13.523438-13.523438h37.871093c3.585938 0 7.027344 1.421875 9.5625 3.960938l92.367188 92.367187c2.539062 2.535157 3.964843 5.976563 3.964843 9.5625v37.871094c0 7.46875-6.054687 13.523437-13.523437 13.523437zm0 0" fill="#d476e2"/><path d="m153.328125 192.488281-92.367187-92.371093c-2.535157-2.535157-5.976563-3.960938-9.5625-3.960938h-37.875c-7.46875 0-13.523438 6.054688-13.523438 13.523438v14c0-7.46875 6.054688-13.523438 13.523438-13.523438h37.875c3.585937 0 7.027343 1.425781 9.5625 3.960938l92.367187 92.371093c2.535156 2.535157 3.960937 5.972657 3.960937 9.5625v-14c0-3.589843-1.425781-7.027343-3.960937-9.5625zm0 0" fill="#ea82fa"/><g fill="#5861c7"><path d="m44.121094 220.761719c0 6.777343-5.492188 12.269531-12.269532 12.269531-6.773437 0-12.265624-5.492188-12.265624-12.269531 0-6.773438 5.492187-12.265625 12.265624-12.265625 6.777344 0 12.269532 5.492187 12.269532 12.265625zm0 0"/><path d="m44.121094 128.425781c0 6.777344-5.492188 12.269531-12.269532 12.269531-6.773437 0-12.265624-5.492187-12.265624-12.269531 0-6.773437 5.492187-12.265625 12.265624-12.265625 6.777344 0 12.269532 5.492188 12.269532 12.265625zm0 0"/><path d="m137.289062 220.761719c0 6.777343-5.492187 12.269531-12.269531 12.269531-6.773437 0-12.265625-5.492188-12.265625-12.269531 0-6.773438 5.492188-12.265625 12.265625-12.265625 6.777344 0 12.269531 5.492187 12.269531 12.265625zm0 0"/></g><path d="m443.242188 322.167969h-374.484376c-3.980468 0-7.207031-3.226563-7.207031-7.207031 0-3.976563 3.226563-7.203126 7.207031-7.203126h374.484376c3.980468 0 7.207031 3.226563 7.207031 7.203126 0 3.980468-3.226563 7.207031-7.207031 7.207031zm0 0" fill="#ffefe4"/><path d="m443.242188 406.886719h-374.484376c-3.980468 0-7.207031-3.222657-7.207031-7.203125 0-3.980469 3.226563-7.203125 7.207031-7.203125h374.484376c3.980468 0 7.207031 3.222656 7.207031 7.203125 0 3.980468-3.226563 7.203125-7.207031 7.203125zm0 0" fill="#ffefe4"/><path d="m263.203125 392.480469v73.101562c0 3.976563-3.222656 7.203125-7.203125 7.203125-3.976562 0-7.203125-3.222656-7.203125-7.203125v-73.101562zm0 0" fill="#ffefe4"/></svg>
