<svg enable-background="new 0 0 32 32" height="512" viewBox="0 0 32 32" width="512" xmlns="http://www.w3.org/2000/svg"><path d="m16 13.333c-2.206 0-4 1.794-4 4s1.794 4 4 4 4-1.794 4-4-1.794-4-4-4zm1.805 4.862c.26.26.26.682 0 .943-.13.13-.301.195-.471.195s-.341-.065-.471-.195l-.863-.862-.862.862c-.13.13-.301.195-.471.195-.171 0-.341-.065-.471-.195-.26-.26-.26-.682 0-.943l.862-.862-.862-.862c-.26-.26-.26-.682 0-.943s.682-.26.943 0l.861.863.862-.862c.26-.26.682-.26.943 0s.26.682 0 .943l-.862.862z" fill="#24243b"/><path d="m22 8.667h-12c-1.103 0-2 .897-2 2v10.667c0 1.103.897 2 2 2h12c1.103 0 2-.897 2-2v-10.667c0-1.103-.897-2-2-2zm0 13.333h-12c-.368 0-.667-.299-.667-.667v-9.333h13.333v9.333c.001.368-.298.667-.666.667z" fill="#24243b"/></svg>