<svg enable-background="new 0 0 256 256" height="100" viewBox="0 0 256 256" width="100" xmlns="http://www.w3.org/2000/svg"><g id="Layer_42"><g><g><g><path d="m213.589 144.078c-.834-4.656-5.283-7.753-9.939-6.92l-10.574 1.894c4.475-.802 7.584-4.98 6.967-9.563-.654-4.872-5.221-8.148-9.986-7.295-.066.012-.345.061-.28.05l-41.293 7.395c5.483-.982 9.054-6.536 7.488-12.027-1.365-4.784-6.396-7.552-11.293-6.675l-11.267 2.018c-8.788 1.573-16.886 5.795-23.209 12.099-5.654 4.769-9.461 12.631-24.29 15.938l-83.413 15.023 17 60.981 87.526-16.273c8.726-1.563 14.45.215 19.331.667 3.794.518 7.646.438 11.415-.237l55.187-9.883c4.402-.789 7.758-4.711 7.391-9.168-.421-5.114-5.481-8.573-10.41-7.69l9.174-1.643c4.655-.833 7.753-5.283 6.92-9.938-.834-4.655-5.283-7.754-9.939-6.92l10.574-1.894c4.655-.834 7.753-5.284 6.92-9.939z" fill="#f9d0b4"/></g></g><g><g><circle cx="164.749" cy="48.252" fill="#cbeff7" r="13.472"/></g></g><g><g><path d="m214.536 73.439c-4.529 0-8.2 3.671-8.2 8.2s3.671 8.2 8.2 8.2 8.2-3.671 8.2-8.2-3.671-8.2-8.2-8.2z" fill="#cbeff7"/></g></g><g><g><path d="m198.136 19.552c-4.852 0-8.786 3.934-8.786 8.786 0 4.853 3.934 8.786 8.786 8.786s8.786-3.934 8.786-8.786c0-4.853-3.934-8.786-8.786-8.786z" fill="#9be5f9"/></g></g><g><g><path d="m163.13 78.223-10.767-3.886c-8.398-3.031-17.522-3.424-26.149-1.127-7.28 1.303-14.509 6.209-29.005 1.658l-72.709-26.872-22 59.152 83.128 30.006c2.021.729 3.788 1.542 5.367 2.393 10.729-3.787 14.263-10.324 19.207-14.495 6.323-6.304 14.42-10.525 23.209-12.099l1.866-.334c1.792-9.444 9.556-16.888 19.45-17.958 1.31-.142 2.378-1.152 2.461-2.466.347-5.529 3.25-10.3 7.496-13.254-.493-.278-1.011-.522-1.554-.718z" fill="#f9d0b4"/></g></g><g><g><path d="m179.758 193.634-41.986 7.519c-3.769.675-7.621.755-11.415.237-1.858-.172-3.839-.536-6.059-.835-.016.193-.045.383-.053.578-.324 8.353 6.352 15.225 14.632 15.225 4.53 0 8.571-2.062 11.253-5.296 1.062-1.28 3-1.38 4.146-.174 3.197 3.366 7.707 5.47 12.716 5.47 9.986 0 18.027-8.33 17.552-18.421-.071-1.491-.355-2.927-.786-4.303z" fill="#9be5f9"/></g></g><g><g><path d="m226.193 140.969c-.652-.799-.802-1.893-.369-2.828 4.948-10.704-2.045-23.361-13.879-24.745-1.226-.143-2.195-1.043-2.425-2.256-1.4-7.364-7.392-13.139-14.943-14.113-1.374-.177-2.389-1.393-2.316-2.777.522-9.879-7.366-18.469-17.554-18.469-9.241 0-16.937 7.168-17.518 16.413-.083 1.315-1.151 2.325-2.461 2.466-9.894 1.07-17.658 8.514-19.45 17.958l9.401-1.684c4.897-.877 9.928 1.891 11.293 6.675 1.567 5.491-2.005 11.045-7.488 12.027l41.293-7.395c-.065.012.214-.038.28-.05 4.766-.854 9.332 2.423 9.986 7.295.617 4.583-2.493 8.762-6.967 9.563l10.574-1.894c4.655-.834 9.105 2.264 9.939 6.92.834 4.655-2.264 9.105-6.92 9.939l-10.574 1.894c4.655-.834 9.105 2.265 9.939 6.92.834 4.656-2.264 9.105-6.92 9.938l-9.174 1.643c4.928-.882 9.989 2.577 10.41 7.69.367 4.457-2.988 8.38-7.391 9.168l-3.948.707c3.293 4.184 8.412 6.877 14.037 6.808 12.058-.148 20.188-12.083 16.431-23.139-.429-1.263.064-2.619 1.207-3.306 6.137-3.684 10.25-10.391 10.25-18.07.001-5.045-1.782-9.67-4.743-13.298z" fill="#9be5f9"/></g></g><g><g><path d="m126.206 31.374h-2.4v-2.3c0-1.8-1.4-3.2-3.2-3.2-1.7 0-3.2 1.4-3.2 3.1v2.4h-2.3c-1.8 0-3.2 1.4-3.2 3.2-.1 1.7 1.3 3.2 3.2 3.2h2.3v2.3c0 1.8 1.4 3.2 3.2 3.2 1.7 0 3.2-1.4 3.2-3.1v-2.4h2.3c1.8 0 3.2-1.4 3.2-3.2 0-1.7-1.4-3.2-3.1-3.2z" fill="#70d6f9"/></g></g><g><g><path d="m230.506 201.273c-1.878 0-3.4 1.522-3.4 3.4s1.522 3.4 3.4 3.4 3.4-1.522 3.4-3.4-1.522-3.4-3.4-3.4z" fill="#87d147"/></g></g><g><g><path d="m97.506 45.273c-1.878 0-3.4 1.522-3.4 3.4s1.522 3.4 3.4 3.4 3.4-1.522 3.4-3.4-1.522-3.4-3.4-3.4z" fill="#f5c84c"/></g></g><g><g><path d="m124.288 232.474c-3.1-.6-5.6-3-6.2-6.1 0-.1-.3-.1-.3 0-.6 3.1-3.1 5.5-6.2 6.1-.1 0-.1.2 0 .3 3.1.6 5.6 3 6.2 6.1 0 .1.3.1.3 0 .6-3.1 3.1-5.5 6.2-6.1.1-.1.1-.3 0-.3z" fill="#fc657e"/></g></g><g><g><path d="m255.85 181.474c-4.5-.8-8-4.3-8.9-8.7 0-.2-.4-.2-.4 0-.9 4.4-4.4 7.9-8.9 8.7-.2 0-.2.3 0 .4 4.5.8 8 4.3 8.9 8.7 0 .2.4.2.4 0 .9-4.4 4.4-7.9 8.9-8.7.2-.101.2-.4 0-.4z" fill="#f5c84c"/></g></g><g><g><path d="m151.174 129.156c-.244-1.36-1.548-2.263-2.901-2.021l-9.149 1.638c-1.359.244-2.264 1.542-2.021 2.901.217 1.21 1.271 2.06 2.458 2.06.146 0 .294-.013.443-.04l9.149-1.638c1.36-.242 2.264-1.541 2.021-2.9z"/></g></g><g><g><path d="m195.537 138.611c-.244-1.359-1.542-2.264-2.902-2.02l-27.299 4.889c-1.359.244-2.263 1.542-2.02 2.902.217 1.21 1.271 2.06 2.458 2.06.146 0 .294-.013.444-.04l27.299-4.889c1.358-.244 2.263-1.543 2.02-2.902z"/></g></g><g><g><path d="m198.556 155.469c-.244-1.36-1.542-2.261-2.902-2.02l-27.299 4.889c-1.359.244-2.263 1.542-2.02 2.902.217 1.21 1.271 2.06 2.458 2.06.146 0 .294-.013.444-.04l27.299-4.889c1.359-.244 2.263-1.542 2.02-2.902z"/></g></g><g><g><path d="m201.575 172.329c-.244-1.36-1.546-2.263-2.901-2.021l-27.299 4.888c-1.359.244-2.264 1.542-2.021 2.901.217 1.21 1.271 2.06 2.458 2.06.146 0 .294-.013.443-.04l27.299-4.888c1.36-.243 2.264-1.541 2.021-2.9z"/></g></g><g><g><path d="m216.05 143.638c-.521-2.909-2.144-5.441-4.569-7.13s-5.363-2.331-8.271-1.811l-1.463.262c.752-1.77 1.05-3.759.775-5.804-.406-3.025-1.984-5.679-4.444-7.472-2.46-1.794-5.464-2.487-8.458-1.951l-.273.048c-.003.001-.007.001-.01.002-.002 0-.004.001-.007.001l-31.685 5.674c1.271-2.644 1.543-5.687.732-8.533-1.672-5.858-7.886-9.571-14.138-8.45l-11.267 2.018c-9.301 1.666-17.756 6.062-24.461 12.717-1.417 1.205-2.677 2.535-4.01 3.942-4.011 4.232-8.556 9.029-19.082 11.388l-83.362 15.015c-1.358.245-2.262 1.545-2.017 2.904.245 1.358 1.541 2.259 2.904 2.017l83.413-15.024c.034-.006.067-.013.101-.021 12.052-2.688 17.387-8.317 21.673-12.84 1.259-1.33 2.449-2.585 3.685-3.627.053-.045.104-.092.153-.141 5.991-5.973 13.558-9.918 21.884-11.409l11.268-2.018c3.757-.673 7.473 1.478 8.448 4.9.554 1.94.27 3.952-.798 5.665-1.058 1.695-2.78 2.867-4.726 3.215-1.359.244-2.263 1.542-2.02 2.902s1.544 2.257 2.901 2.02c.006-.001.013-.002.02-.003l41.273-7.391v-.002.002c.019-.003.039-.007.058-.011.024-.004.049-.008.075-.013l.147-.026c1.639-.293 3.286.086 4.633 1.069 1.347.982 2.211 2.437 2.435 4.098.433 3.223-1.732 6.197-4.931 6.77-1.359.244-2.263 1.542-2.02 2.901.243 1.36 1.543 2.257 2.901 2.021l10.574-1.894c1.594-.287 3.204.067 4.533.992s2.219 2.313 2.504 3.907c.286 1.594-.067 3.204-.992 4.534-.926 1.329-2.313 2.218-3.908 2.503l-10.554 1.89c-.006.001-.013.002-.02.003-1.359.244-2.264 1.542-2.021 2.901s1.543 2.26 2.901 2.021l.011-.002c3.289-.582 6.438 1.614 7.026 4.901.589 3.291-1.609 6.448-4.9 7.037l-9.169 1.642c-.001 0-.003.001-.004.001-1.359.244-2.263 1.542-2.02 2.901s1.541 2.258 2.901 2.021c1.8-.321 3.677.148 5.158 1.287 1.362 1.048 2.186 2.521 2.32 4.148.252 3.065-2.093 5.921-5.34 6.502l-55.187 9.883c-3.518.63-7.096.705-10.636.221-.036-.005-.072-.009-.107-.012-1.099-.102-2.286-.282-3.543-.473-4.196-.635-9.418-1.428-16.476-.164l-87.525 16.273c-1.357.252-2.253 1.558-2.001 2.915.224 1.203 1.274 2.043 2.455 2.043.152 0 .306-.014.46-.042l87.509-16.271c6.226-1.116 10.796-.423 14.829.188 1.312.199 2.551.387 3.776.502 4.041.545 8.125.458 12.141-.26l55.187-9.883c5.756-1.03 9.903-6.229 9.442-11.834-.21-2.551-1.303-4.883-3.115-6.7 5.909-1.153 9.833-6.86 8.769-12.808-.395-2.202-1.419-4.135-2.854-5.648l1.469-.263c2.909-.521 5.441-2.143 7.129-4.568s2.331-5.36 1.811-8.268z"/></g></g><g><g><g><path d="m164.749 32.281c-8.807 0-15.972 7.165-15.972 15.972s7.165 15.972 15.972 15.972 15.972-7.165 15.972-15.972-7.165-15.972-15.972-15.972zm0 26.944c-6.05 0-10.972-4.922-10.972-10.972s4.922-10.972 10.972-10.972 10.972 4.922 10.972 10.972-4.922 10.972-10.972 10.972z"/></g></g></g><g><g><g><path d="m214.536 70.939c-5.9 0-10.7 4.8-10.7 10.7s4.8 10.701 10.7 10.701 10.7-4.8 10.7-10.701c0-5.9-4.8-10.7-10.7-10.7zm0 16.401c-3.143 0-5.7-2.557-5.7-5.701 0-3.143 2.557-5.7 5.7-5.7s5.7 2.557 5.7 5.7c0 3.144-2.557 5.701-5.7 5.701z"/></g></g></g><g><g><g><path d="m198.136 17.051c-6.223 0-11.286 5.063-11.286 11.286s5.063 11.286 11.286 11.286 11.286-5.063 11.286-11.286-5.063-11.286-11.286-11.286zm0 17.573c-3.466 0-6.286-2.82-6.286-6.286s2.82-6.286 6.286-6.286 6.286 2.82 6.286 6.286-2.82 6.286-6.286 6.286z"/></g></g></g><g><g><path d="m165.909 76.761c-.636-.357-1.285-.656-1.93-.889l-10.767-3.886c-8.888-3.208-18.409-3.628-27.542-1.217-1.83.335-3.587.857-5.446 1.409-5.586 1.659-11.917 3.541-22.208.325l-72.649-26.852c-1.294-.481-2.733.183-3.211 1.478-.479 1.295.183 2.733 1.478 3.211l72.709 26.873c.039.015.078.028.118.041 11.78 3.698 19.215 1.491 25.188-.284 1.756-.521 3.414-1.014 5.006-1.299.068-.012.136-.027.203-.045 8.173-2.177 16.699-1.811 24.657 1.062l8.454 3.052c-3.108 3.345-4.983 7.652-5.275 12.298-.002.04-.093.122-.235.137-10.315 1.116-18.657 8.369-21.253 18.275l-.234.042c-9.301 1.666-17.756 6.062-24.46 12.717-1.417 1.205-2.678 2.535-4.011 3.942-3.32 3.503-6.749 7.121-13.332 9.667-1.511-.762-3.056-1.425-4.692-2.016l-83.128-30.006c-1.298-.466-2.731.205-3.2 1.503-.469 1.298.204 2.731 1.503 3.2l83.128 30.006c1.769.638 3.415 1.372 5.03 2.242.369.199.776.299 1.186.299.281 0 .562-.047.832-.143 8.384-2.959 12.774-7.591 16.302-11.314 1.26-1.329 2.45-2.584 3.686-3.627.053-.045.104-.092.153-.141 5.991-5.973 13.558-9.918 21.884-11.409l1.866-.334c1.021-.183 1.822-.976 2.016-1.995 1.631-8.593 8.568-14.999 17.263-15.939 2.559-.276 4.53-2.293 4.688-4.794.287-4.575 2.63-8.716 6.429-11.359.707-.492 1.11-1.312 1.069-2.172s-.525-1.636-1.275-2.058z"/></g></g><g><g><g><path d="m182.143 192.886c-.377-1.201-1.591-1.93-2.826-1.712l-41.986 7.519c-3.518.629-7.097.703-10.636.221-.036-.005-.072-.009-.107-.012-1.099-.102-2.288-.282-3.547-.473-.774-.117-1.576-.238-2.41-.351-.681-.093-1.368.101-1.902.531-.534.431-.868 1.062-.923 1.746l-.016.151c-.02.177-.037.354-.043.532-.183 4.711 1.513 9.172 4.774 12.563 3.263 3.392 7.651 5.259 12.356 5.259 5.106 0 9.909-2.26 13.177-6.2.078-.094.17-.116.233-.118.107-.004.156.05.175.07 3.827 4.029 8.986 6.248 14.529 6.248 5.541 0 10.699-2.208 14.525-6.219 3.824-4.008 5.786-9.271 5.524-14.82-.076-1.621-.378-3.281-.897-4.935zm-8.245 16.302c-2.873 3.012-6.747 4.67-10.907 4.67-4.158 0-8.031-1.666-10.903-4.691-.987-1.04-2.361-1.627-3.793-1.627-.058 0-.117.001-.175.003-1.516.051-2.943.752-3.915 1.923-2.315 2.791-5.715 4.392-9.329 4.392-3.333 0-6.441-1.323-8.752-3.726-1.789-1.859-2.912-4.174-3.268-6.676 1.107.167 2.167.318 3.216.417 4.041.545 8.125.458 12.141-.26l39.67-7.104c.085.521.141 1.038.165 1.545.195 4.171-1.278 8.125-4.15 11.134z"/></g></g></g><g><g><g><path d="m233.437 154.271c0-5.403-1.884-10.688-5.306-14.882-.04-.049-.071-.127-.038-.199 2.709-5.859 2.436-12.48-.749-18.165-3.18-5.676-8.687-9.361-15.109-10.112-.141-.017-.233-.102-.259-.24-1.624-8.537-8.487-15.018-17.08-16.125-.078-.01-.144-.088-.139-.166.288-5.45-1.715-10.861-5.497-14.848-3.825-4.032-8.994-6.252-14.554-6.252-10.561 0-19.352 8.238-20.013 18.756-.002.04-.093.122-.235.137-10.897 1.179-19.593 9.207-21.637 19.978-.153.808.101 1.64.679 2.225.578.584 1.407.847 2.218.702l9.401-1.684c3.757-.673 7.473 1.478 8.448 4.9.554 1.94.27 3.952-.798 5.665-1.056 1.692-2.773 2.862-4.714 3.213l-.012.002c-1.359.244-2.263 1.542-2.02 2.902s1.544 2.257 2.901 2.02l41.293-7.395c.019-.003.039-.007.058-.011.025-.004.05-.008.075-.013l.147-.026c1.639-.293 3.286.086 4.633 1.069 1.347.982 2.211 2.437 2.435 4.098.433 3.223-1.732 6.197-4.931 6.77-1.359.244-2.264 1.542-2.021 2.901.243 1.36 1.543 2.257 2.901 2.021l10.575-1.894c1.594-.287 3.205.067 4.533.992 1.329.925 2.219 2.313 2.504 3.907.286 1.594-.067 3.204-.992 4.534-.926 1.329-2.313 2.218-3.907 2.503l-10.574 1.894c-1.359.244-2.264 1.542-2.021 2.901s1.543 2.265 2.901 2.021c3.296-.589 6.448 1.609 7.038 4.899.589 3.291-1.609 6.448-4.9 7.037l-9.174 1.643c-1.359.244-2.263 1.542-2.02 2.901s1.541 2.258 2.901 2.021l.009-.002c1.795-.318 3.669.151 5.148 1.289 1.362 1.048 2.186 2.521 2.32 4.148.252 3.065-2.093 5.921-5.34 6.502l-3.947.707c-.864.155-1.583.751-1.896 1.572-.312.821-.171 1.745.372 2.435 3.835 4.874 9.726 7.764 15.799 7.764.078 0 .156 0 .234-.001 6.489-.08 12.36-3.167 16.109-8.469 3.707-5.243 4.701-11.962 2.658-17.974-.051-.151-.006-.278.127-.358 7.18-4.31 11.466-11.866 11.466-20.213zm-14.037 15.926c-2.158 1.295-3.099 3.867-2.288 6.253 1.552 4.568.821 9.481-2.006 13.479-2.814 3.979-7.22 6.296-12.088 6.355-3.115.043-6.185-.95-8.75-2.744 5.299-1.372 9.011-6.325 8.573-11.644-.21-2.551-1.303-4.883-3.115-6.7 5.909-1.153 9.833-6.86 8.769-12.808-.395-2.202-1.419-4.135-2.854-5.648l1.469-.263c6.005-1.075 10.016-6.835 8.94-12.84-.521-2.909-2.144-5.441-4.569-7.13s-5.363-2.331-8.271-1.811l-1.463.262c.752-1.77 1.05-3.759.775-5.804-.406-3.025-1.984-5.679-4.444-7.472-2.46-1.794-5.464-2.487-8.458-1.951l-.272.048c-.003.001-.007.001-.01.002-.002 0-.005.001-.008.001l-31.684 5.674c1.271-2.644 1.543-5.687.732-8.533-1.671-5.858-7.884-9.568-14.139-8.45l-5.454.977c2.656-6.723 8.794-11.502 16.212-12.305 2.559-.276 4.53-2.293 4.688-4.794.496-7.889 7.095-14.069 15.022-14.069 4.175 0 8.056 1.667 10.927 4.693 2.841 2.996 4.347 7.057 4.131 11.144-.141 2.678 1.833 5.044 4.493 5.388 6.442.831 11.589 5.693 12.807 12.1.435 2.286 2.28 4.002 4.591 4.272 4.812.563 8.94 3.329 11.328 7.59 2.392 4.27 2.601 9.235.573 13.623-.837 1.81-.568 3.901.701 5.458 2.735 3.352 4.18 7.405 4.18 11.721-.001 6.575-3.379 12.529-9.038 15.926z"/></g></g></g></g></g></svg>
