<svg id="Layer_2" enable-background="new 0 0 64 64" height="512" viewBox="0 0 64 64" width="512" xmlns="http://www.w3.org/2000/svg"><path d="m3.194 33.962h6l17.984-8.918v-4.029z" fill="#d1d1d1"/><path d="m9.194 34.462h-6c-.229 0-.429-.156-.485-.377-.056-.222.046-.454.248-.563l23.983-12.947c.155-.084.342-.08.494.011.151.09.244.253.244.429v4.029c0 .19-.108.364-.278.448l-17.984 8.918c-.069.034-.145.052-.222.052zm-4.021-1h3.904l17.601-8.728v-2.881z" fill="#63312d"/><path d="m27.178 54.957v-33.942l-18.525 9.984v23.958z" fill="#f9dd9d"/><path d="m10.653 32.457 16.525-8.921v-2.521l-18.525 9.984v23.958h2z" fill="#ffeecf"/><path d="m27.178 55.457h-18.525c-.276 0-.5-.224-.5-.5v-23.958c0-.184.101-.353.263-.44l18.524-9.983c.155-.084.342-.08.494.011.151.09.244.253.244.429v33.941c0 .276-.224.5-.5.5zm-18.025-1h17.524v-32.604l-17.524 9.444z" fill="#63312d"/><path d="m13.574 40.302h8.684v14.654h-8.684z" fill="#f9a287"/><path d="m13.574 40.302h2v14.654h-2z" fill="#ffc8bb"/><path d="m15.074 46.678h1v2.146h-1z" fill="#63312d"/><path d="m22.257 55.457h-8.684c-.276 0-.5-.224-.5-.5v-14.655c0-.276.224-.5.5-.5h8.684c.276 0 .5.224.5.5v14.654c0 .277-.223.501-.5.501zm-8.183-1h7.684v-13.655h-7.684z" fill="#63312d"/><path d="m13.574 34.313h8.684v2.957h-8.684z" fill="#82d9ff"/><path d="m13.574 34.313h2v2.957h-2z" fill="#caf4ff"/><path d="m22.257 37.769h-8.684c-.276 0-.5-.224-.5-.5v-2.957c0-.276.224-.5.5-.5h8.684c.276 0 .5.224.5.5v2.957c0 .276-.223.5-.5.5zm-8.183-1h7.684v-1.957h-7.684z" fill="#63312d"/><path d="m56.32 54.957v-29.08l-23.142-14v43.08z" fill="#db785a"/><path d="m56.32 55.457h-23.142c-.276 0-.5-.224-.5-.5v-43.08c0-.181.097-.347.254-.436.156-.089.35-.086.504.008l23.142 14c.15.09.241.253.241.428v29.08c.001.276-.223.5-.499.5zm-22.642-1h22.142v-28.298l-22.142-13.395z" fill="#63312d"/><path d="m3.194 29.962v4l23.984-12.947v-4z" fill="#f8f3f3"/><path d="m3.194 34.462c-.089 0-.177-.023-.256-.071-.151-.09-.244-.253-.244-.429v-4c0-.184.101-.353.263-.44l23.983-12.947c.155-.084.342-.08.494.011.151.09.244.253.244.429v4c0 .184-.101.353-.263.44l-23.984 12.947c-.074.04-.156.06-.237.06zm.5-4.202v2.864l22.984-12.407v-2.864z" fill="#63312d"/><path d="m50.32 54.957v-29.08l-23.142-14v43.08z" fill="#f9a287"/><path d="m29.178 15.45 21.142 12.79v-2.363l-23.142-14v43.08h2z" fill="#ffc8bb"/><path d="m50.32 55.457h-23.142c-.276 0-.5-.224-.5-.5v-43.109c0-.181.097-.347.255-.436.157-.089.35-.085.504.008l23.142 14.029c.149.091.241.253.241.428v29.08c0 .276-.224.5-.5.5zm-22.642-1h22.142v-28.298l-22.142-13.423z" fill="#63312d"/><path d="m45.875 34.313v-4.647l-14.252-8.622v13.269z" fill="#82d9ff"/><path d="m31.623 21.044v13.269h2v-12.059z" fill="#caf4ff"/><path d="m45.875 34.813h-14.252c-.276 0-.5-.224-.5-.5v-13.269c0-.181.097-.347.254-.436s.35-.086.504.008l14.252 8.622c.15.09.241.253.241.428v4.646c.001.277-.223.501-.499.501zm-13.752-1h13.252v-3.865l-13.252-8.017z" fill="#63312d"/><path d="m31.678 40.302h14.142v7.087h-14.142z" fill="#82d9ff"/><path d="m31.678 40.302h2v7.087h-2z" fill="#caf4ff"/><path d="m45.82 47.889h-14.142c-.276 0-.5-.224-.5-.5v-7.087c0-.276.224-.5.5-.5h14.142c.276 0 .5.224.5.5v7.087c0 .277-.224.5-.5.5zm-13.642-1h13.142v-6.087h-13.142z" fill="#63312d"/><path d="m28.69 4.954h-6l32.117 19.429v4.213h6v-4.213z" fill="#d1d1d1"/><path d="m60.807 29.096h-6c-.276 0-.5-.224-.5-.5v-3.931l-31.875-19.283c-.192-.116-.283-.346-.223-.562s.257-.366.481-.366h6c.091 0 .181.025.259.072l32.117 19.429c.15.09.241.253.241.428v4.212c0 .277-.224.501-.5.501zm-5.5-1h5v-3.431l-31.756-19.211h-4.068l30.583 18.501c.15.09.241.253.241.428z" fill="#63312d"/><path d="m45.445 7.642h6v11.078h-6z" fill="#efc36a"/><path d="m51.445 19.22h-6c-.276 0-.5-.224-.5-.5v-11.078c0-.276.224-.5.5-.5h6c.276 0 .5.224.5.5v11.078c0 .276-.224.5-.5.5zm-5.5-1h5v-10.078h-5z" fill="#63312d"/><path d="m38.195 7.642v6.674l7.25 4.404v-11.078z" fill="#f9dd9d"/><path d="m40.195 13.181v-5.539h-2v6.674l7.25 4.404v-2.35z" fill="#ffeecf"/><path d="m45.445 19.22c-.09 0-.18-.024-.26-.073l-7.25-4.404c-.149-.091-.24-.252-.24-.427v-6.674c0-.276.224-.5.5-.5h7.25c.276 0 .5.224.5.5v11.078c0 .181-.098.347-.255.436-.076.042-.161.064-.245.064zm-6.75-5.185 6.25 3.796v-9.689h-6.25z" fill="#63312d"/><path d="m43.278 4.394h9.084v3.248h-9.084z" fill="#db785a"/><path d="m52.362 8.142h-9.084c-.276 0-.5-.224-.5-.5v-3.248c0-.276.224-.5.5-.5h9.084c.276 0 .5.224.5.5v3.248c0 .276-.224.5-.5.5zm-8.584-1h8.084v-2.248h-8.084z" fill="#63312d"/><path d="m37.278 4.394h9.084v3.248h-9.084z" fill="#f9a287"/><path d="m39.278 6.394h7.084v-2h-9.084v3.248h2z" fill="#ffc8bb"/><path d="m46.362 8.142h-9.084c-.276 0-.5-.224-.5-.5v-3.248c0-.276.224-.5.5-.5h9.084c.276 0 .5.224.5.5v3.248c0 .276-.224.5-.5.5zm-8.584-1h8.084v-2.248h-8.084z" fill="#63312d"/><path d="m22.69 4.954v4.213l32.117 19.429v-4.213z" fill="#f8f3f3"/><path d="m54.807 29.096c-.09 0-.179-.024-.259-.072l-32.116-19.43c-.15-.09-.241-.253-.241-.428v-4.212c0-.181.097-.347.254-.436.156-.089.35-.086.504.008l32.117 19.429c.15.09.241.253.241.428v4.212c0 .181-.097.347-.254.436-.076.043-.161.065-.246.065zm-31.617-20.211 31.117 18.824v-3.044l-31.117-18.824z" fill="#63312d"/><path d="m9.194 54.958h51.613v4.648h-51.613z" fill="#d1d1d1"/><path d="m60.807 60.106h-51.613c-.276 0-.5-.224-.5-.5v-4.647c0-.276.224-.5.5-.5h51.613c.276 0 .5.224.5.5v4.647c0 .276-.224.5-.5.5zm-51.113-1h50.613v-3.647h-50.613z" fill="#63312d"/><path d="m3.194 54.958h51.613v4.648h-51.613z" fill="#f8f3f3"/><path d="m54.807 60.106h-51.613c-.276 0-.5-.224-.5-.5v-4.647c0-.276.224-.5.5-.5h51.613c.276 0 .5.224.5.5v4.647c0 .276-.224.5-.5.5zm-51.113-1h50.613v-3.647h-50.613z" fill="#63312d"/></svg>