<svg id="Capa_1" enable-background="new 0 0 512 512" height="512" viewBox="0 0 512 512" width="512" xmlns="http://www.w3.org/2000/svg"><g><g><g><path d="m0 99.691h512v312.619h-512z" fill="#eff5f6"/><path d="m474.161 99.691h37.839v312.619h-37.839z" fill="#cbe5e7"/><g><g><g fill="#fee265"><path d="m0 402.008h97.805l-51.509 59.596h-35.994c-5.687 0-10.302-4.616-10.302-10.302z"/><path d="m152.889 402.008h101.329l-51.509 59.596h-101.329z"/><path d="m309.291 402.008h101.329l-51.509 59.596h-101.329z"/><path d="m512 402.008v49.294c0 5.687-4.615 10.302-10.302 10.302h-87.504l51.509-59.596z"/></g><path d="m501.698 461.603h-37.838c5.687 0 10.302-4.615 10.302-10.302v-49.294h37.838v49.294c0 5.687-4.615 10.302-10.302 10.302z" fill="#fdd330"/><g fill="#3f5959"><path d="m111.68 461.605h-75.681l51.509-59.602h75.681z"/><path d="m268.086 461.605h-75.681l51.509-59.602h75.681z"/><path d="m424.492 461.605h-75.681l51.509-59.602h75.681z"/></g></g></g></g><g><g><g fill="#fee265"><path d="m10.302 50.396h87.504l-51.509 59.596h-46.297v-49.294c0-5.686 4.615-10.302 10.302-10.302z"/><path d="m254.218 50.396-51.509 59.596h-101.329l51.509-59.596z"/><path d="m410.62 50.396-51.509 59.596h-101.329l51.509-59.596z"/><path d="m512 60.698v49.294h-97.805l51.509-59.596h35.994c5.687 0 10.302 4.616 10.302 10.302z"/></g><path d="m463.86 50.396h37.839c5.687 0 10.302 4.615 10.302 10.302v49.294h-37.839v-49.294c-.001-5.686-4.616-10.302-10.302-10.302z" fill="#fdd330"/><g fill="#3f5959"><path d="m111.68 109.997h-75.681l51.509-59.602h75.681z"/><path d="m268.086 109.997h-75.681l51.509-59.602h75.681z"/><path d="m424.492 109.997h-75.681l51.509-59.602h75.681z"/></g></g></g></g><g><path d="m201.971 187.754c-37.635-37.63-98.856-37.63-136.491 0-37.63 37.631-37.63 98.86 0 136.491 18.817 18.815 43.53 28.223 68.245 28.223s49.428-9.409 68.245-28.223c37.631-37.631 37.631-98.86.001-136.491zm-109.077 27.411c11.256-11.257 26.045-16.887 40.832-16.887 8.465 0 16.908 1.909 24.711 5.598l-76.833 76.834c-10.134-21.435-6.413-47.843 11.29-65.545zm81.664 81.669c-17.7 17.702-44.11 21.422-65.543 11.288l76.833-76.833c10.134 21.435 6.413 47.843-11.29 65.545z" fill="#fb6672"/><path d="m201.974 324.243c-18.818 18.818-43.529 28.222-68.25 28.222-5.055 0-10.11-.395-15.109-1.186 19.468-3.05 38.173-12.068 53.141-27.036 37.627-37.627 37.627-98.863 0-136.49-14.968-14.968-33.673-23.986-53.141-27.036 29.474-4.641 60.69 4.377 83.359 27.036 37.626 37.627 37.626 98.863 0 136.49z" fill="#fb4a59"/></g><g fill="#3f5959"><path d="m262.414 243.927h22.625c4.268 0 7.726-3.459 7.726-7.726 0-4.268-3.459-7.726-7.726-7.726h-14.898v-35.202c0-4.268-3.459-7.726-7.726-7.726s-7.726 3.459-7.726 7.726v42.927c-.001 4.268 3.458 7.727 7.725 7.727z"/><path d="m425.113 243.927c4.268 0 7.726-3.459 7.726-7.726v-4.724l11.997 10.227c1.455 1.239 3.235 1.846 5.008 1.846 2.185 0 4.356-.922 5.884-2.714 2.768-3.246 2.379-8.124-.868-10.892l-17.838-15.206 17.838-15.206c3.247-2.769 3.636-7.646.868-10.892-2.77-3.247-7.648-3.636-10.892-.868l-11.997 10.227v-4.725c0-4.268-3.459-7.726-7.726-7.726s-7.726 3.459-7.726 7.726v42.926c-.001 4.268 3.458 7.727 7.726 7.727z"/><path d="m352.842 214.736c0-15.887-12.926-28.813-28.813-28.813s-28.812 12.926-28.812 28.813 12.925 28.813 28.812 28.813 28.813-12.925 28.813-28.813zm-42.172 0c0-7.367 5.993-13.36 13.359-13.36 7.367 0 13.36 5.993 13.36 13.36s-5.993 13.36-13.36 13.36c-7.366.001-13.359-5.992-13.359-13.36z"/><path d="m407.84 235.111c3.017-3.018 3.017-7.909 0-10.928-3.018-3.016-7.909-3.016-10.928 0-5.208 5.211-13.686 5.209-18.892 0-2.524-2.523-3.913-5.878-3.913-9.447s1.389-6.924 3.913-9.447c5.206-5.208 13.684-5.209 18.892 0 3.018 3.016 7.909 3.016 10.928 0 3.017-3.018 3.017-7.909 0-10.928-11.234-11.233-29.514-11.233-40.746 0-5.443 5.442-8.44 12.677-8.44 20.374 0 7.696 2.997 14.932 8.439 20.374 5.618 5.617 12.996 8.425 20.374 8.425 7.377.001 14.755-2.807 20.373-8.423z"/><path d="m274.847 259.705h-7.282c-7.101 0-12.877 5.777-12.877 12.877v32.627c0 7.101 5.777 12.877 12.877 12.877h7.282c12.72 0 23.069-10.349 23.069-23.069v-12.242c.001-12.721-10.349-23.07-23.069-23.07zm7.617 35.312c0 4.2-3.417 7.617-7.617 7.617h-4.706v-27.476h4.706c4.2 0 7.617 3.416 7.617 7.617z"/><path d="m334.331 260.083c-15.887 0-28.812 12.926-28.812 28.813s12.925 28.813 28.812 28.813 28.813-12.926 28.813-28.813-12.926-28.813-28.813-28.813zm0 42.174c-7.366 0-13.359-5.993-13.359-13.36s5.993-13.36 13.359-13.36c7.367 0 13.36 5.993 13.36 13.36s-5.993 13.36-13.36 13.36z"/><path d="m474.741 259.705c-4.268 0-7.726 3.459-7.726 7.726v17.82l-15.067-22.164c-1.905-2.805-5.418-4.04-8.662-3.04-3.241.997-5.454 3.993-5.454 7.384v42.929c0 4.268 3.459 7.726 7.726 7.726s7.726-3.459 7.726-7.726v-17.82l15.067 22.164c1.465 2.156 3.879 3.383 6.39 3.383.756 0 1.521-.112 2.272-.343 3.241-.997 5.454-3.993 5.454-7.384v-42.929c.001-4.267-3.458-7.726-7.726-7.726z"/><path d="m400.148 278.074c-2.285 0-4.453 1.011-5.921 2.762l-6.947 8.285v-21.689c0-4.268-3.459-7.726-7.726-7.726s-7.726 3.459-7.726 7.726v42.929c0 3.248 2.032 6.15 5.086 7.261.863.314 1.756.466 2.639.466 2.241 0 4.426-.977 5.923-2.762l14.673-17.499 14.674 17.499c2.087 2.487 5.504 3.405 8.562 2.296 3.052-1.111 5.085-4.012 5.085-7.261v-42.929c0-4.268-3.459-7.726-7.726-7.726s-7.726 3.459-7.726 7.726v21.69l-6.948-8.286c-1.469-1.75-3.637-2.762-5.922-2.762z"/><path d="m474.741 336.956h-95.187c-4.268 0-7.726 3.459-7.726 7.726s3.459 7.726 7.726 7.726h95.187c4.268 0 7.726-3.459 7.726-7.726s-3.458-7.726-7.726-7.726z"/></g></g></svg>