<svg id="Layer_1" height="512" viewBox="0 0 512 512" width="512" xmlns="http://www.w3.org/2000/svg" data-name="Layer 1"><path d="m100.844 350.836-86.115-52.361a31.023 31.023 0 0 1 -14.729-26.475v-94.216a30.771 30.771 0 0 1 16.054-27.253 30.773 30.773 0 0 1 31.619.83l54.545 33.839-8.436 13.6-54.567-33.857a15.159 15.159 0 0 0 -23.215 12.841v94.216a15.072 15.072 0 0 0 7.125 12.854l86.031 52.31z" fill="#28bcb8"/><path d="m418.225 350.794-8.449-13.588 79.115-49.2a15.062 15.062 0 0 0 7.109-12.842v-97.38a15.159 15.159 0 0 0 -23.193-12.854l-54.589 33.87-8.436-13.6 54.567-33.854a31.159 31.159 0 0 1 47.651 26.438v97.38a30.98 30.98 0 0 1 -14.646 26.423z" fill="#28bcb8"/><path d="m440 337.97a32 32 0 0 1 -10.728 23.908c-25.751 22.928-86.64 70.122-173.272 70.122-18.773 0-99.7-9.167-172.54-69.935a31.967 31.967 0 0 1 -11.46-24.547v-161.518a673.205 673.205 0 0 0 88-32c57.766-25.664 66.555-39.271 96-40 27.657-.684 38.036 10.873 104 40 33.938 14.986 62.117 25.582 80 32z" fill="#4edddd"/><path d="m256 264a404.149 404.149 0 0 1 -138.738-24.483l5.477-15.033a388.2 388.2 0 0 0 133.261 23.516 388.177 388.177 0 0 0 133.262-23.517l5.477 15.033a404.123 404.123 0 0 1 -138.739 24.484z" fill="#28bcb8"/><path d="m256 336a404.149 404.149 0 0 1 -138.738-24.483l5.477-15.033a388.2 388.2 0 0 0 133.261 23.516 388.177 388.177 0 0 0 133.262-23.517l5.477 15.033a404.123 404.123 0 0 1 -138.739 24.484z" fill="#28bcb8"/><path d="m256 104c-29.445.729-38.234 14.336-96 40a673.205 673.205 0 0 1 -88 32v161.518a31.967 31.967 0 0 0 11.46 24.547 306.182 306.182 0 0 0 61.54 39.835v-82.98a72.806 72.806 0 0 1 36.962-63.5c69.283-38.973 111.086-108.844 125.422-136.093-22.929-11.127-33.577-15.767-51.384-15.327z" fill="#fafbfc" opacity=".3"/></svg>