<svg enable-background="new 0 0 256 256" height="512" viewBox="0 0 256 256" width="512" xmlns="http://www.w3.org/2000/svg"><g id="Layer_4"><g><g><g><ellipse cx="128" cy="63.809" fill="#70d6f9" rx="61.921" ry="61.921" transform="matrix(.122 -.993 .993 .122 49.03 183.054)"/></g></g><g><g><path d="m159.96 10.767c-3.183.808-8.885 3.122-11.576 9.582-3.66 8.783 12.307 2.308 16.153 12.307 3.846 10 3.846 12.307 10 14.615s6.923 18.461-2.308 22.307c-9.23 3.846-16.922 13.846-13.846 20.768 3.077 6.923 3.846 13.846-1.538 19.23-2.891 2.891-2.677 6.89-1.859 9.975 20.677-10.029 34.935-31.219 34.935-55.743 0-22.503-12.006-42.199-29.961-53.041z" fill="#b2e26d"/></g></g><g><g><path d="m128.385 30.349c6.267-2.611 6.861-5.931 6.596-7.794-.123-.865-.686-1.615-1.484-1.968-9.211-4.076-22.517 5.774-35.111 2.071-5.758-1.694-10.619-2.343-14.259-2.539-9.041 9.079-15.284 20.946-17.323 34.2 4.176 2.531 8.506 5.921 8.506 9.107 0 3.235-4.463 6.255-8.697 8.395 2.495 19.299 13.863 35.807 29.891 45.298 1.24-6.74 4.949-14.444 7.267-19.079 3.846-7.692-4.615-8.461-10.769-14.615s-2.308-13.846 2.308-17.692c4.615-3.846 12.307 2.308 18.461 2.308s10.769-.769 14.615-4.615 0-10-5.384-15.384c-5.386-5.386-3.848-13.847 5.383-17.693z" fill="#b2e26d"/></g></g><g><g><path d="m138.778 75.567c-4.283-4.283-6.881.702-11.109 3.022-2.422 1.329-3.859 3.94-3.859 6.703 0 3.481 2.31 6.553 5.667 7.474 4.111 1.128 9.593 1.562 13.384-2.23 6.804-6.805 1.36-9.526-4.083-14.969z" fill="#b2e26d"/></g></g><g><g><path d="m113.18 116.091c-2.106-2.107-5.152-1.865-7.436-1.239-1.865.512-3.148 2.218-3.148 4.152 0 .474.084.936.229 1.375 2.878 1.283 5.869 2.354 8.958 3.191 2.673-2.498 4.81-4.065 1.397-7.479z" fill="#b2e26d"/></g></g><g><g><path d="m238.183 178.666c4.206-6.596 2.219-13.017.364-16.644-1.628 2.581-4.497 4.302-7.774 4.302-.501 0-.989-.051-1.468-.128-.517 7.704-5.037 14.357-11.49 17.874v6.677c0 2.138 1.122 4.094 2.919 5.201.72.444-.194-.077 5.939 2.974.825.407 1.915.838 2.755 1.101.167.052.335.098.504.145 3.24-1.186 6.099-3.069 7.951-6.001 3.395-5.376 1.414-10.585.164-12.916-.44-.82-.364-1.802.136-2.585z" fill="#fed690"/></g></g><g><g><path d="m185.379 166.195c-.479.077-.967.128-1.469.128-3.277 0-6.146-1.72-7.774-4.302-1.855 3.627-3.842 10.049.364 16.644.5.784.575 1.766.136 2.585-1.25 2.331-3.231 7.54.164 12.916 1.852 2.932 4.71 4.815 7.951 6.001.168-.048.337-.093.503-.145.84-.263 1.93-.694 2.755-1.101 6.531-3.249 5.273-2.563 5.939-2.974 1.797-1.107 2.919-3.063 2.919-5.201v-6.677c-6.451-3.517-10.971-10.17-11.488-17.874z" fill="#fed690"/></g></g><g><g><path d="m230.773 147.938c-.481 0-.952.041-1.413.112v16.669c0 .497-.023.988-.056 1.477.479.077.967.128 1.468.128 5.077 0 9.193-4.116 9.193-9.193s-4.115-9.193-9.192-9.193z" fill="#f9d0b4"/></g></g><g><g><path d="m228.006 145.253c-2.228-.516-4.933-1.807-8.034-4.624-.613-.557-1.559-.511-2.098.118-3.353 3.914-15.245 15.789-32.55 10.86v13.113c0 12.11 9.908 22.018 22.018 22.018s22.019-9.908 22.019-22.018v-17.79c-.001-.809-.567-1.495-1.355-1.677z" fill="#f9d0b4"/></g></g><g><g><path d="m185.323 164.719v-13.113c-1.512-.431-3.065-.988-4.657-1.691-1.027-.453-2.226-.245-3.045.523-1.786 1.675-2.904 4.051-2.904 6.693 0 5.077 4.116 9.193 9.193 9.193.501 0 .989-.051 1.469-.128-.033-.489-.056-.981-.056-1.477z" fill="#f9d0b4"/></g></g><g><g><path d="m207.342 115.315c-16.468 0-29.941 13.474-29.941 29.941v5.411c.075-.075.143-.156.221-.229.819-.768 2.018-.976 3.045-.523 1.592.703 3.145 1.26 4.657 1.691 17.305 4.93 29.197-6.946 32.55-10.86.539-.629 1.485-.675 2.098-.118 3.101 2.818 5.806 4.108 8.034 4.624.788.183 1.354.868 1.354 1.677v1.12c.461-.071.932-.112 1.413-.112 2.544 0 4.845 1.033 6.51 2.703v-5.385c0-16.467-13.474-29.94-29.941-29.94z" fill="#fed690"/></g></g><g><g><path d="m253.036 212.549c-.22-3.945-2.979-7.289-6.811-8.253l-4.376-1.105c-.41-.104-10.83-2.734-11.367-2.869-1.316-.331-2.593-.801-3.809-1.401l-5.444-2.684c-2.091-1.031-3.414-3.159-3.414-5.49v-6.677c-3.119 1.7-6.689 2.668-10.473 2.668s-7.354-.968-10.473-2.668v6.678c0 2.331-1.324 4.459-3.414 5.49l-5.444 2.684c-1.217.6-2.494 1.069-3.809 1.401-.078.02-11.295 2.851-11.367 2.869l-4.376 1.105c-3.832.965-6.591 4.308-6.811 8.253l-.462 12.702c-.056 1.545 1.181 2.828 2.728 2.828h86.858c1.546 0 2.784-1.283 2.727-2.828z" fill="#f98fa6"/></g></g><g><g><path d="m175.683 238.263c-.229-4.107-3.101-7.587-7.09-8.591l-12.894-3.245c-6.834-1.72-12.209-4.668-12.139-4.633-2.81-1.385-4.589-4.246-4.589-7.379v-3.876c-3.289 1.722-7.021 2.702-10.972 2.702-3.951 0-7.683-.981-10.972-2.702v3.876c0 3.128-1.773 5.99-4.578 7.374-3.801 1.875-7.117 3.372-12.149 4.638l-12.894 3.245c-3.989 1.004-6.861 4.485-7.09 8.591l-.725 12.5c-.087 1.502 1.107 2.768 2.612 2.768h91.592c1.504 0 2.699-1.266 2.612-2.768z" fill="#6cadef"/></g></g><g><g><path d="m148.413 160.94c-1.557-1.633-4.089-1.783-5.864-.39-2.807 2.203-7.663 4.926-14.523 4.926-6.876 0-11.758-2.736-14.577-4.942-1.774-1.388-4.3-1.232-5.855.398l-.008.009c-2.184 2.29-3.402 5.333-3.402 8.498v19.987c0 13.099 10.717 23.816 23.816 23.816 13.099 0 23.816-10.717 23.816-23.816v-19.987c0-3.166-1.219-6.209-3.403-8.499z" fill="#f9d0b4"/></g></g><g><g><path d="m153.344 171.274c-.52 0-1.03.044-1.528.121v18.03c0 .537-.024 1.069-.06 1.597.518.083 1.046.139 1.588.139 5.491 0 9.943-4.452 9.943-9.943s-4.452-9.944-9.943-9.944z" fill="#f9d0b4"/></g></g><g><g><path d="m104.184 189.425v-18.03c-.499-.077-1.008-.121-1.528-.121-5.492 0-9.943 4.452-9.943 9.943s4.452 9.943 9.943 9.943c.542 0 1.07-.055 1.588-.139-.035-.528-.06-1.059-.06-1.596z" fill="#f9d0b4"/></g></g><g><g><path d="m151.727 150.959c-.798 0-1.489-.615-1.5-1.413-.183-13.271-15.337-15.764-30.429-13.158-12.795 2.209-22.147 13.305-22.147 26.29v9.957c1.471-.86 3.178-1.361 5.005-1.361.52 0 1.03.044 1.528.121v-1.958c0-3.165 1.218-6.208 3.402-8.498l.008-.009c1.554-1.63 4.081-1.786 5.855-.398 2.819 2.206 7.701 4.942 14.577 4.942 6.859 0 11.716-2.723 14.523-4.926 1.775-1.393 4.307-1.243 5.864.39 2.184 2.29 3.402 5.333 3.402 8.498v1.958c.499-.077 1.008-.121 1.528-.121 1.849 0 3.575.514 5.058 1.393v-8.175c.001-11.881-4.29-13.532-6.674-13.532z" fill="#5b5d60"/></g></g><g><g><path d="m94.284 213.497c-.218-3.922-2.962-7.247-6.771-8.206l-12.315-3.1c-6.528-1.643-11.661-4.458-11.594-4.425-2.684-1.323-4.383-4.056-4.383-7.048v-3.702c-3.142 1.644-6.706 2.581-10.48 2.581-3.774 0-7.338-.937-10.48-2.581v3.702c0 2.988-1.693 5.722-4.373 7.043-3.63 1.79-6.797 3.22-11.604 4.43l-12.315 3.1c-3.81.959-6.553 4.284-6.772 8.206l-.692 11.939c-.083 1.435 1.058 2.644 2.495 2.644h87.483c1.437 0 2.578-1.209 2.495-2.644z" fill="#70d6f9"/></g></g><g><g><path d="m68.238 139.643c-1.487-1.56-3.906-1.703-5.601-.373-2.681 2.104-7.319 4.705-13.871 4.705-6.568 0-11.231-2.614-13.923-4.721-1.694-1.326-4.108-1.177-5.592.38l-.008.008c-2.086 2.188-3.25 5.094-3.25 8.117v19.091c0 12.511 10.236 22.747 22.747 22.747 12.511 0 22.747-10.236 22.747-22.747v-19.091c.001-3.022-1.163-5.929-3.249-8.116z" fill="#f9d0b4"/></g></g><g><g><path d="m72.947 149.514c-.497 0-.984.042-1.46.116v17.221c0 .513-.023 1.021-.057 1.525.495.08.999.132 1.517.132 5.245 0 9.497-4.252 9.497-9.497s-4.252-9.497-9.497-9.497z" fill="#f9d0b4"/></g></g><g><g><path d="m25.993 166.85v-17.221c-.476-.074-.963-.116-1.46-.116-5.245 0-9.497 4.252-9.497 9.497s4.252 9.497 9.497 9.497c.518 0 1.022-.053 1.517-.132-.033-.505-.057-1.012-.057-1.525z" fill="#f9d0b4"/></g></g><g><g><path d="m71.403 130.11c-.762 0-1.422-.587-1.433-1.349-.174-12.675-14.649-15.056-29.064-12.567-12.221 2.11-21.153 12.708-21.153 25.11v9.51c1.405-.822 3.035-1.3 4.781-1.3.497 0 .984.042 1.46.116v-1.87c0-3.023 1.164-5.929 3.25-8.117l.008-.008c1.485-1.557 3.898-1.705 5.592-.38 2.692 2.107 7.355 4.721 13.923 4.721 6.552 0 11.19-2.601 13.871-4.705 1.695-1.331 4.114-1.187 5.601.373 2.086 2.188 3.25 5.094 3.25 8.117v1.87c.476-.074.963-.116 1.46-.116 1.766 0 3.414.491 4.831 1.331v-7.808c-.002-11.352-4.1-12.928-6.377-12.928z" fill="#754e34"/></g></g><g><g><path d="m221.229 196.237c-2.091-1.031-3.414-3.159-3.414-5.49v-6.677c-3.119 1.7-6.689 2.668-10.473 2.668s-7.354-.968-10.473-2.668v6.677c0 2.331-1.324 4.46-3.414 5.49l-4.033 1.989c3.296 7.775 8.35 14.643 14.661 20.091 1.867 1.612 4.652 1.612 6.519 0 6.311-5.449 11.365-12.316 14.661-20.091z" fill="#f9d0b4"/></g></g><g><g><path d="m143.561 221.793c-2.81-1.385-4.589-4.246-4.589-7.379v-3.876c-3.289 1.722-7.021 2.702-10.972 2.702-3.951 0-7.683-.981-10.972-2.702v3.876c0 3.133-1.779 5.994-4.589 7.379-.44.217-.873.428-1.304.635 2.495 6.906 9.126 11.877 16.865 11.877 7.73 0 14.356-4.96 16.857-11.854-.844-.409-1.317-.668-1.296-.658z" fill="#f9d0b4"/></g></g><g><g><path d="m63.603 197.766c-2.684-1.323-4.383-4.056-4.383-7.048v-3.702c-3.142 1.644-6.706 2.581-10.48 2.581s-7.338-.937-10.48-2.581v3.702c0 2.992-1.699 5.725-4.383 7.048-.42.207-.834.409-1.245.607 2.383 6.596 8.717 11.344 16.108 11.344 7.383 0 13.712-4.738 16.101-11.322-.806-.391-1.258-.639-1.238-.629z" fill="#f9d0b4"/></g></g><g><g><path d="m138.173 191.186c-2.609 0-5.133-.782-7.272-2.208-.865-.577-1.862-.924-2.901-.924s-2.036.348-2.901.924c-2.138 1.427-4.663 2.208-7.272 2.208h-13.57c.91 12.284 11.237 22.055 23.743 22.055 12.506 0 22.833-9.771 23.743-22.055z" fill="#9be5f9"/></g></g><g><g><path d="m216.976 168.532c-2.492 0-4.903-.747-6.945-2.109-.826-.551-1.778-.883-2.771-.883s-1.945.332-2.771.883c-2.042 1.363-4.454 2.109-6.945 2.109h-11.88c1.82 10.308 10.869 18.205 21.679 18.205s19.859-7.897 21.679-18.205z" fill="#9be5f9"/></g></g><g><g><path d="m58.457 168.532c-2.492 0-4.903-.747-6.945-2.109-.826-.551-1.778-.883-2.771-.883s-1.945.332-2.771.883c-2.042 1.363-4.454 2.109-6.945 2.109h-12.963c.869 11.733 10.733 21.066 22.678 21.066 11.945 0 21.809-9.333 22.678-21.066z" fill="#9be5f9"/></g></g><g><g><g><path d="m240.772 160.883c-.409-.8-1.216-1.318-2.113-1.359-.907-.035-1.748.404-2.227 1.164-1.238 1.963-3.354 3.135-5.659 3.135-.318 0-.669-.031-1.071-.096-.696-.113-1.404.075-1.954.512-.55.438-.891 1.087-.938 1.789-.449 6.689-4.26 12.613-10.192 15.846-.804.438-1.304 1.28-1.304 2.195v6.677c0 3.005 1.536 5.746 4.106 7.329l.104.064c.385.239.469.28 1.271.671.697.339 2.025.987 4.77 2.352.922.455 2.114.932 3.115 1.245.147.046.295.088.443.13l.121.034c.224.064.454.096.685.096.291 0 .582-.051.859-.152 4.122-1.508 7.219-3.868 9.205-7.014 4.163-6.59 1.564-12.988.295-15.491 4.959-7.772 2.432-15.32.484-19.127zm-4.929 21.549c1.113 2.077 2.584 6.19-.075 10.4-1.266 2.005-3.26 3.581-5.937 4.692-.682-.234-1.467-.556-2.045-.841-2.758-1.372-4.096-2.024-4.798-2.366-.606-.295-.609-.291-.826-.425l-.118-.073c-1.083-.667-1.729-1.815-1.729-3.072v-5.244c5.998-3.75 10.041-9.8 11.199-16.702 2.252-.141 4.374-.921 6.147-2.221.852 3.121.859 6.906-1.586 10.741-.996 1.56-1.085 3.518-.232 5.111z"/></g></g></g><g><g><g><path d="m198.064 181.875c-5.933-3.234-9.742-9.158-10.191-15.847-.047-.702-.387-1.351-.938-1.789-.55-.438-1.255-.626-1.954-.512-.402.065-.753.096-1.071.096-2.306 0-4.422-1.172-5.658-3.135-.479-.76-1.313-1.199-2.228-1.165-.897.04-1.704.559-2.113 1.359-1.947 3.806-4.473 11.352.511 19.208-1.313 2.46-3.884 8.84.266 15.411 1.987 3.145 5.084 5.505 9.205 7.013.277.102.568.152.859.152.23 0 .461-.032.685-.096l.126-.036c.147-.041.294-.083.441-.128.999-.313 2.191-.79 3.12-1.249 2.964-1.474 4.318-2.135 4.978-2.457.83-.406.826-.414 1.028-.544l.131-.082c2.572-1.583 4.107-4.324 4.107-7.33v-6.677c0-.913-.5-1.754-1.304-2.192zm-3.696 8.872c0 1.257-.646 2.405-1.73 3.073l-.205.131c-.08.043-.21.105-.525.259-.663.324-2.026.99-5.003 2.47-.585.289-1.371.61-2.053.844-2.676-1.111-4.671-2.688-5.937-4.692-2.657-4.208-1.188-8.321-.075-10.399.854-1.591.765-3.55-.231-5.11-2.446-3.836-2.438-7.622-1.586-10.742 1.773 1.299 3.895 2.08 6.147 2.22 1.157 6.902 5.199 12.951 11.198 16.702z"/></g></g></g><g><g><g><path d="m230.773 145.438c-.583 0-1.188.048-1.795.142-1.219.188-2.118 1.237-2.118 2.471v16.669c0 .441-.021.878-.05 1.312-.085 1.288.823 2.428 2.097 2.633.668.107 1.278.16 1.866.16 6.447 0 11.692-5.246 11.692-11.693s-5.244-11.694-11.692-11.694zm1.087 18.297v-13.209c3.175.521 5.605 3.284 5.605 6.604s-2.43 6.084-5.605 6.605z"/></g></g></g><g><g><g><path d="m228.57 142.817c-2.203-.51-4.53-1.87-6.918-4.04-.794-.721-1.865-1.097-2.927-1.03-1.073.067-2.051.554-2.751 1.371-3.009 3.511-14.055 14.614-29.967 10.082-.751-.215-1.565-.064-2.19.409-.626.472-.994 1.211-.994 1.995v13.113c0 13.52 10.999 24.518 24.519 24.518s24.519-10.999 24.519-24.518v-17.787c-.001-1.972-1.353-3.664-3.291-4.113zm-1.71 21.902c0 10.762-8.756 19.518-19.519 19.518s-19.519-8.756-19.519-19.518v-9.961c15.988 2.946 27.205-7.16 31.247-11.593 2.582 2.194 5.196 3.663 7.79 4.376v17.178z"/></g></g></g><g><g><g><path d="m187.823 164.719v-13.113c0-1.117-.741-2.098-1.815-2.404-1.435-.409-2.892-.938-4.332-1.574-1.945-.859-4.209-.472-5.765.987-2.347 2.2-3.693 5.304-3.693 8.516 0 6.447 5.245 11.693 11.692 11.693.588 0 1.198-.052 1.866-.16 1.275-.205 2.185-1.349 2.097-2.638-.029-.433-.05-.868-.05-1.307zm-5-.984c-3.175-.521-5.605-3.284-5.605-6.604 0-1.862.75-3.591 2.113-4.869.059-.055.135-.084.21-.084.039 0 .078.008.115.024 1.05.463 2.109.878 3.167 1.24z"/></g></g></g><g><g><g><g><path d="m207.342 112.815c-17.889 0-32.441 14.553-32.441 32.441v5.411c0 1.011.609 1.923 1.543 2.31.938.389 2.01.173 2.725-.542l.175-.183c.09-.075.209-.096.313-.049 1.65.729 3.327 1.337 4.982 1.809 3.139.894 6.111 1.278 8.903 1.278 12.938 0 21.988-8.24 25.528-12.124 2.582 2.194 5.196 3.663 7.79 4.376v.509c0 .73.319 1.423.873 1.898s1.288.684 2.009.573c.359-.056.696-.083 1.031-.083 1.791 0 3.474.699 4.738 1.968.714.717 1.79.932 2.726.545.935-.387 1.545-1.299 1.545-2.311v-5.385c0-17.888-14.553-32.441-32.44-32.441zm27.44 33.325c-1.015-.37-2.083-.597-3.183-.673-.481-1.304-1.596-2.317-3.029-2.649-2.203-.511-4.53-1.87-6.918-4.04-.794-.721-1.865-1.097-2.927-1.03-1.073.067-2.051.554-2.751 1.372-3.008 3.511-14.055 14.614-29.967 10.082-1.435-.409-2.892-.938-4.332-1.574-.573-.253-1.174-.398-1.775-.439v-1.933c0-15.131 12.311-27.441 27.441-27.441s27.44 12.31 27.44 27.441v.884z"/></g></g></g></g><g><g><g><path d="m255.532 212.41c-.282-5.065-3.777-9.3-8.694-10.538l-15.745-3.975c-1.144-.288-2.258-.698-3.314-1.219l-5.443-2.684c-1.246-.615-2.021-1.859-2.021-3.248v-6.677c0-.882-.465-1.699-1.224-2.149-.758-.45-1.697-.467-2.473-.046-5.672 3.092-12.882 3.092-18.554 0-.774-.421-1.715-.404-2.473.046-.759.45-1.224 1.267-1.224 2.149v6.678c0 1.389-.773 2.633-2.02 3.248l-5.443 2.684c-1.056.521-2.171.93-3.317 1.22-.099.025-11.219 2.832-11.366 2.869l-4.374 1.104c-4.919 1.238-8.414 5.473-8.698 10.586l-.462 12.702c-.053 1.432.466 2.789 1.46 3.82.995 1.031 2.332 1.6 3.765 1.6h86.858c1.434 0 2.771-.568 3.766-1.6.994-1.031 1.513-2.388 1.46-3.819zm-4.595 13.099c-.045.047-.101.07-.166.07h-86.858c-.064 0-.12-.023-.164-.07-.045-.046-.066-.103-.064-.167l.46-12.654c.16-2.868 2.139-5.267 4.927-5.968l4.37-1.104c.072-.018 11.297-2.852 11.372-2.87 1.485-.375 2.934-.907 4.304-1.583l5.443-2.684c2.966-1.462 4.809-4.425 4.809-7.732v-2.852c5.115 1.767 10.833 1.767 15.946 0v2.851c0 3.307 1.843 6.27 4.81 7.732l5.443 2.684c1.371.676 2.819 1.209 4.305 1.583l15.743 3.974c2.786.701 4.765 3.1 4.923 5.919l.46 12.705c.002.064-.02.12-.063.166z"/></g></g></g><g><g><path d="m237.472 216.093c-1.381 0-2.5 1.119-2.5 2.5v8.166c0 1.381 1.119 2.5 2.5 2.5s2.5-1.119 2.5-2.5v-8.166c0-1.381-1.119-2.5-2.5-2.5z"/></g></g><g><g><path d="m177.211 216.093c-1.381 0-2.5 1.119-2.5 2.5v8.166c0 1.381 1.119 2.5 2.5 2.5s2.5-1.119 2.5-2.5v-8.166c0-1.381-1.119-2.5-2.5-2.5z"/></g></g><g><g><path d="m216.921 156.822c-1.576 0-2.853 1.277-2.853 2.853s1.277 2.853 2.853 2.853c1.575 0 2.853-1.277 2.853-2.853s-1.277-2.853-2.853-2.853z"/></g></g><g><g><path d="m197.762 156.822c-1.576 0-2.853 1.277-2.853 2.853s1.277 2.853 2.853 2.853 2.853-1.277 2.853-2.853-1.277-2.853-2.853-2.853z"/></g></g><g><g><g><path d="m178.18 238.124c-.292-5.228-3.899-9.598-8.976-10.876l-12.895-3.246c-6.237-1.57-11.271-4.251-11.521-4.386-.04-.022-.08-.044-.122-.064-1.97-.972-3.194-2.94-3.194-5.137v-3.876c0-.875-.457-1.686-1.205-2.139-.749-.453-1.681-.482-2.454-.076-3.064 1.604-6.366 2.417-9.813 2.417s-6.748-.813-9.813-2.417c-.774-.406-1.704-.376-2.454.076-.748.453-1.205 1.264-1.205 2.139v3.876c0 2.163-1.25 4.178-3.184 5.132-3.452 1.702-6.711 3.212-11.654 4.456l-12.895 3.246c-5.076 1.278-8.684 5.648-8.976 10.871l-.725 12.5c-.081 1.4.425 2.788 1.388 3.808.962 1.02 2.318 1.604 3.721 1.604h91.592c1.402 0 2.759-.585 3.721-1.604.963-1.02 1.469-2.408 1.388-3.808zm-4.384 12.907h-91.592l-.116-.124.725-12.505c.169-3.031 2.261-5.566 5.204-6.307l12.895-3.246c5.419-1.364 8.933-2.99 12.646-4.82 3.684-1.818 5.972-5.502 5.972-9.616v-.089c5.447 1.863 11.496 1.863 16.943 0v.089c0 4.078 2.252 7.736 5.885 9.573.705.435 1.844.961 3.736 1.778 2.077.897 5.325 2.162 8.996 3.085l12.895 3.246c2.943.741 5.035 3.275 5.204 6.312l.693 12.587c-.036.037-.071.037-.086.037z"/></g></g></g><g><g><g><path d="m150.222 159.214c-2.444-2.564-6.405-2.837-9.217-.631-2.553 2.004-6.877 4.393-12.979 4.393-6.117 0-10.466-2.399-13.036-4.411-2.806-2.196-6.764-1.921-9.212.649-2.64 2.767-4.094 6.398-4.094 10.223v19.987c0 14.511 11.805 26.316 26.315 26.316s26.315-11.805 26.315-26.316v-19.987c.001-3.825-1.453-7.456-4.092-10.223zm-.907 30.211c0 11.753-9.563 21.316-21.315 21.316s-21.315-9.563-21.315-21.316v-19.987c0-2.534.963-4.939 2.72-6.781.356-.375.837-.565 1.324-.565.411 0 .827.136 1.18.412 3.19 2.497 8.576 5.474 16.118 5.474 7.53 0 12.894-2.969 16.066-5.46.772-.606 1.853-.542 2.511.149h.001c1.748 1.833 2.711 4.238 2.711 6.772v19.986z"/></g></g></g><g><g><path d="m160.433 239.153c-1.381 0-2.5 1.119-2.5 2.5v11.489c0 1.381 1.119 2.5 2.5 2.5s2.5-1.119 2.5-2.5v-11.489c0-1.381-1.12-2.5-2.5-2.5z"/></g></g><g><g><path d="m95.567 239.153c-1.381 0-2.5 1.119-2.5 2.5v11.489c0 1.381 1.119 2.5 2.5 2.5s2.5-1.119 2.5-2.5v-11.489c0-1.381-1.119-2.5-2.5-2.5z"/></g></g><g><g><g><path d="m153.344 168.774c-.622 0-1.265.051-1.91.15-1.219.188-2.118 1.237-2.118 2.471v18.029c0 .481-.022.958-.054 1.431-.086 1.288.822 2.429 2.097 2.634.713.115 1.361.17 1.985.17 6.861 0 12.443-5.582 12.443-12.443 0-6.86-5.582-12.442-12.443-12.442zm.971 19.824v-14.76c3.647.478 6.472 3.605 6.472 7.38s-2.824 6.902-6.472 7.38z"/></g></g></g><g><g><g><path d="m106.685 189.425v-18.029c0-1.233-.899-2.282-2.118-2.471-.646-.1-1.288-.15-1.91-.15-6.861 0-12.443 5.582-12.443 12.443s5.582 12.443 12.443 12.443c.626 0 1.275-.056 1.987-.171 1.273-.206 2.181-1.347 2.095-2.634-.032-.474-.054-.95-.054-1.431zm-5-.827c-3.647-.478-6.472-3.605-6.472-7.38s2.824-6.903 6.472-7.38z"/></g></g></g><g><g><path d="m139.091 179.117c-1.767 0-3.2 1.433-3.2 3.2s1.432 3.2 3.2 3.2 3.2-1.433 3.2-3.2-1.433-3.2-3.2-3.2z"/></g></g><g><g><path d="m117.602 179.117c-1.767 0-3.2 1.433-3.2 3.2s1.433 3.2 3.2 3.2 3.2-1.433 3.2-3.2-1.433-3.2-3.2-3.2z"/></g></g><g><g><g><path d="m152.688 148.515c-.283-4.374-2.041-7.93-5.234-10.582-7.683-6.38-20.892-5.249-28.081-4.008-14.035 2.423-24.222 14.516-24.222 28.753v9.957c0 .896.479 1.723 1.256 2.168.774.445 1.732.442 2.505-.01 1.465-.856 3.118-1.204 4.889-.929.728.112 1.456-.096 2.011-.571s.874-1.169.874-1.899v-1.958c0-2.534.963-4.939 2.72-6.781.658-.69 1.733-.757 2.504-.154 3.19 2.497 8.576 5.474 16.118 5.474 7.53 0 12.894-2.969 16.066-5.46.772-.606 1.852-.542 2.512.149 1.748 1.833 2.711 4.238 2.711 6.772v1.958c0 .73.319 1.424.874 1.899.554.475 1.282.683 2.011.571 1.786-.277 3.453.079 4.926.952.393.233.834.35 1.275.35.427 0 .854-.109 1.237-.328.78-.444 1.263-1.274 1.263-2.172v-8.175c-.002-12.712-4.775-15.569-8.215-15.976zm3.213 20.528c-.526-.112-1.061-.189-1.599-.231-.149-3.594-1.585-6.982-4.08-9.597-2.443-2.565-6.406-2.838-9.218-.632-2.553 2.004-6.877 4.393-12.979 4.393-6.117 0-10.466-2.399-13.036-4.411-2.806-2.196-6.764-1.921-9.212.649-2.496 2.616-3.932 6.003-4.081 9.598-.52.041-1.037.114-1.547.22v-6.353c0-11.797 8.441-21.818 20.073-23.827 10.784-1.864 19.55-.797 24.035 2.928 2.287 1.9 3.422 4.451 3.468 7.803.031 2.137 1.826 3.876 4 3.876 2.614 0 4.175 4.125 4.175 11.034v4.55z"/></g></g></g><g><g><g><path d="m96.78 213.358c-.281-5.042-3.761-9.258-8.657-10.491l-12.315-3.1c-5.942-1.496-10.723-4.042-10.974-4.177-.041-.023-.083-.045-.125-.066-1.844-.909-2.989-2.75-2.989-4.806v-3.702c0-.875-.457-1.686-1.205-2.139-.75-.453-1.681-.482-2.454-.076-2.911 1.523-6.047 2.296-9.32 2.296s-6.409-.772-9.32-2.296c-.775-.406-1.705-.376-2.454.076-.748.453-1.205 1.264-1.205 2.139v3.702c0 2.024-1.169 3.909-2.979 4.801-3.29 1.623-6.397 3.062-11.109 4.248l-12.315 3.1c-4.896 1.233-8.376 5.449-8.657 10.486l-.692 11.939c-.079 1.368.415 2.724 1.355 3.72s2.266 1.568 3.636 1.568h87.482c1.37 0 2.695-.571 3.636-1.568.94-.996 1.435-2.352 1.355-3.72zm-91.78 12.223.692-11.944c.159-2.846 2.122-5.225 4.886-5.921l12.315-3.1c5.188-1.306 8.549-2.861 12.1-4.612 3.536-1.744 5.741-5.27 5.768-9.214 5.137 1.723 10.822 1.723 15.959 0 .026 3.9 2.185 7.392 5.657 9.159.688.431 1.789.933 3.601 1.715 1.988.859 5.096 2.068 8.609 2.953l12.315 3.1c2.764.696 4.727 3.075 4.886 5.926l.697 11.938z"/></g></g></g><g><g><g><path d="m70.047 137.917c-2.374-2.491-6.224-2.757-8.954-.614-2.424 1.903-6.53 4.172-12.327 4.172-5.81 0-9.939-2.278-12.382-4.189-2.728-2.133-6.57-1.866-8.949.631-2.542 2.665-3.941 6.16-3.941 9.842v19.091c0 13.921 11.326 25.247 25.247 25.247s25.247-11.326 25.247-25.247v-19.091c-.001-3.682-1.4-7.177-3.941-9.842zm-1.06 28.933c0 11.164-9.083 20.247-20.247 20.247s-20.247-9.083-20.247-20.247v-19.091c0-2.391.909-4.661 2.567-6.399.318-.334.748-.505 1.184-.505.369 0 .742.122 1.058.369 3.062 2.396 8.229 5.252 15.464 5.252 7.225 0 12.37-2.849 15.415-5.239.691-.544 1.66-.485 2.248.131h.001c1.649 1.729 2.558 3.999 2.558 6.391v19.091z"/></g></g></g><g><g><path d="m79.718 214.235c-1.381 0-2.5 1.119-2.5 2.5v10.973c0 1.381 1.119 2.5 2.5 2.5s2.5-1.119 2.5-2.5v-10.973c0-1.381-1.119-2.5-2.5-2.5z"/></g></g><g><g><path d="m17.764 214.235c-1.381 0-2.5 1.119-2.5 2.5v10.973c0 1.381 1.119 2.5 2.5 2.5s2.5-1.119 2.5-2.5v-10.973c0-1.381-1.119-2.5-2.5-2.5z"/></g></g><g><g><g><path d="m72.947 147.014c-.6 0-1.22.049-1.842.145-1.219.188-2.118 1.238-2.118 2.471v17.221c0 .458-.021.911-.051 1.361-.085 1.287.823 2.428 2.098 2.632.687.11 1.313.164 1.913.164 6.615 0 11.997-5.382 11.997-11.997s-5.382-11.997-11.997-11.997zm1.04 18.917v-13.84c3.367.504 5.957 3.415 5.957 6.92s-2.59 6.416-5.957 6.92z"/></g></g></g><g><g><g><path d="m28.493 166.85v-17.221c0-1.233-.898-2.282-2.117-2.471-7.451-1.155-13.84 4.635-13.84 11.852 0 6.615 5.382 11.997 11.997 11.997.604 0 1.23-.054 1.917-.165 1.274-.206 2.182-1.349 2.095-2.637-.03-.448-.052-.899-.052-1.355zm-5-.919c-3.367-.504-5.957-3.415-5.957-6.92s2.59-6.416 5.957-6.92z"/></g></g></g><g><g><path d="m59.333 157.004c-1.688 0-3.056 1.368-3.056 3.056s1.368 3.056 3.056 3.056 3.056-1.368 3.056-3.056c.001-1.687-1.368-3.056-3.056-3.056z"/></g></g><g><g><path d="m38.809 157.004c-1.688 0-3.056 1.368-3.056 3.056s1.368 3.056 3.056 3.056 3.056-1.368 3.056-3.056c0-1.687-1.368-3.056-3.056-3.056z"/></g></g><g><g><g><path d="m72.426 127.675c-.291-4.166-1.98-7.558-5.032-10.092-7.373-6.123-20.024-5.043-26.913-3.854-13.459 2.324-23.228 13.921-23.228 27.574v9.51c0 .896.479 1.723 1.256 2.168.776.445 1.731.443 2.506-.01 1.375-.803 2.916-1.134 4.596-.872.725.109 1.456-.098 2.01-.572.554-.475.873-1.168.873-1.898v-1.87c0-2.391.909-4.661 2.567-6.399.589-.618 1.554-.675 2.241-.136 3.062 2.396 8.229 5.252 15.464 5.252 7.225 0 12.37-2.849 15.415-5.239.69-.544 1.659-.487 2.248.132 1.65 1.729 2.559 3.999 2.559 6.391v1.87c0 .73.319 1.423.873 1.898s1.289.683 2.009.573c.376-.058.729-.086 1.078-.086 1.244 0 2.474.339 3.556.981.394.233.834.35 1.275.35.427 0 .854-.109 1.237-.328.78-.445 1.263-1.274 1.263-2.172v-7.809c-.001-12.118-4.533-14.93-7.853-15.362zm2.852 19.57c-.432-.086-.868-.148-1.308-.187-.166-3.423-1.545-6.646-3.923-9.14-2.376-2.492-6.225-2.757-8.955-.614-2.424 1.903-6.53 4.172-12.327 4.172-5.81 0-9.939-2.278-12.382-4.189-2.728-2.133-6.57-1.866-8.949.631-2.38 2.495-3.759 5.718-3.925 9.141-.422.037-.842.096-1.257.177v-5.931c0-11.214 8.023-20.738 19.079-22.647 10.27-1.774 18.609-.764 22.866 2.773 2.158 1.792 3.229 4.201 3.271 7.366.03 2.103 1.794 3.814 3.933 3.814 2.427 0 3.876 3.897 3.876 10.426v4.208z"/></g></g></g><g><g><path d="m213.282 24.85c-4.5-.8-8-4.3-8.9-8.7 0-.2-.4-.2-.4 0-.9 4.4-4.4 7.9-8.9 8.7-.2 0-.2.3 0 .4 4.5.8 8 4.3 8.9 8.7 0 .2.4.2.4 0 .9-4.4 4.4-7.9 8.9-8.7.2-.1.2-.4 0-.4z" fill="#f5c84c"/></g></g><g><g><path d="m63.227 248.794c-3.506-.623-6.232-3.35-6.933-6.777 0-.156-.312-.156-.312 0-.701 3.428-3.428 6.154-6.933 6.777-.156 0-.156.234 0 .312 3.506.623 6.232 3.35 6.933 6.777 0 .156.312.156.312 0 .701-3.428 3.428-6.154 6.933-6.777.155-.078.155-.312 0-.312z" fill="#fc657e"/></g></g><g><g><path d="m56.282 99c-1.878 0-3.4 1.522-3.4 3.4s1.522 3.4 3.4 3.4 3.4-1.522 3.4-3.4-1.522-3.4-3.4-3.4z" fill="#f5c84c"/></g></g><g><g><path d="m47.182 75.5h-2.3v-2.3c0-1.7-1.4-3.2-3.2-3.2s-3.2 1.4-3.2 3.2v2.3h-2.3c-1.7 0-3.2 1.4-3.2 3.2s1.4 3.2 3.2 3.2h2.3v2.3c0 1.7 1.4 3.2 3.2 3.2s3.2-1.4 3.2-3.2v-2.3h2.3c1.7 0 3.2-1.4 3.2-3.2s-1.4-3.2-3.2-3.2z" fill="#70d6f9"/></g></g><g><g><path d="m182.282 0c-1.878 0-3.4 1.522-3.4 3.4s1.522 3.4 3.4 3.4 3.4-1.522 3.4-3.4-1.522-3.4-3.4-3.4z" fill="#87d147"/></g></g><g><g><g><path d="m128-.612c-35.521 0-64.421 28.899-64.421 64.421s28.9 64.421 64.421 64.421 64.421-28.899 64.421-64.421-28.9-64.421-64.421-64.421zm0 123.842c-32.765 0-59.421-26.656-59.421-59.421s26.656-59.421 59.421-59.421 59.421 26.656 59.421 59.421-26.656 59.421-59.421 59.421z"/></g></g></g><g><g><g><path d="m226.367 195.983-4.033-1.989c-1.245-.614-2.02-1.859-2.02-3.248v-6.677c0-.882-.465-1.699-1.224-2.149-.758-.45-1.697-.467-2.473-.046-5.672 3.092-12.882 3.092-18.554 0-.774-.421-1.715-.404-2.473.046-.759.45-1.224 1.267-1.224 2.149v6.677c0 1.389-.773 2.634-2.02 3.248l-4.033 1.989c-1.188.586-1.714 1.998-1.196 3.218 3.401 8.021 8.702 15.286 15.329 21.007 1.395 1.205 3.144 1.807 4.894 1.807 1.749 0 3.499-.602 4.894-1.807 6.628-5.722 11.928-12.986 15.328-21.008.519-1.219-.006-2.631-1.195-3.217zm-17.399 20.442c-.928.8-2.324.8-3.252 0-5.452-4.708-9.921-10.558-13.022-17.025l1.866-.92c2.966-1.462 4.809-4.425 4.809-7.732v-2.851c5.115 1.767 10.833 1.767 15.946 0v2.851c0 3.307 1.843 6.27 4.809 7.732l1.866.92c-3.101 6.467-7.569 12.316-13.022 17.025z"/></g></g></g><g><g><g><path d="m145.949 220.203c-.654-.317-1.065-.536-1.165-.589-.038-.022-.078-.042-.118-.063-1.97-.972-3.194-2.94-3.194-5.137v-3.876c0-.875-.457-1.686-1.205-2.139-.749-.453-1.681-.482-2.454-.076-3.064 1.604-6.366 2.417-9.813 2.417s-6.748-.813-9.813-2.417c-.774-.406-1.704-.376-2.454.076-.748.453-1.205 1.264-1.205 2.139v3.876c0 2.197-1.225 4.166-3.194 5.137-.434.213-.86.421-1.283.625-1.155.557-1.702 1.896-1.267 3.102 2.923 8.091 10.645 13.528 19.216 13.528 8.558 0 16.276-5.426 19.207-13.501.438-1.204-.105-2.543-1.258-3.102zm-17.949 11.603c-5.737 0-10.972-3.229-13.625-8.225 3.201-1.938 5.153-5.37 5.153-9.167v-.089c5.447 1.864 11.496 1.864 16.943 0v.089c0 3.797 1.952 7.23 5.154 9.167-2.654 4.994-7.891 8.225-13.625 8.225z"/></g></g></g><g><g><g><path d="m65.932 196.145c-.602-.292-.986-.495-1.093-.552-.042-.024-.086-.047-.13-.069-1.844-.909-2.989-2.75-2.989-4.806v-3.702c0-.875-.457-1.686-1.205-2.139-.75-.453-1.681-.482-2.454-.076-2.911 1.523-6.047 2.296-9.32 2.296s-6.409-.772-9.32-2.296c-.773-.406-1.705-.376-2.454.076-.748.453-1.205 1.264-1.205 2.139v3.702c0 2.056-1.146 3.897-2.988 4.806-.414.203-.819.402-1.224.596-1.155.556-1.703 1.896-1.268 3.103 2.809 7.772 10.227 12.994 18.459 12.994 8.222 0 15.637-5.212 18.451-12.97.436-1.204-.108-2.543-1.26-3.102zm-17.192 11.072c-5.401 0-10.334-3.021-12.864-7.703 3.017-1.868 4.86-5.123 4.885-8.725 5.137 1.723 10.822 1.723 15.959 0 .024 3.603 1.868 6.857 4.886 8.725-2.531 4.681-7.465 7.703-12.866 7.703z"/></g></g></g><g><g><g><path d="m153.575 189.484c-.474-.509-1.137-.799-1.832-.799h-13.57c-2.097 0-4.131-.618-5.885-1.789-2.639-1.759-5.937-1.759-8.577 0-1.753 1.17-3.787 1.788-5.884 1.788h-13.57c-.695 0-1.358.29-1.832.799-.473.509-.713 1.193-.661 1.886 1.013 13.666 12.537 24.371 26.236 24.371s25.224-10.705 26.236-24.371c.052-.692-.188-1.375-.661-1.885zm-25.575 21.257c-10.182 0-18.88-7.3-20.878-17.055h10.705c3.088 0 6.082-.909 8.658-2.628.345-.23.889-.504 1.515-.504s1.17.274 1.514.504c2.577 1.72 5.571 2.629 8.659 2.629h10.705c-1.998 9.754-10.696 17.054-20.878 17.054z"/></g></g></g><g><g><g><path d="m230.936 166.925c-.475-.566-1.176-.893-1.915-.893h-12.045c-1.979 0-3.901-.584-5.557-1.688-2.555-1.707-5.762-1.708-8.318-.001-1.656 1.105-3.578 1.689-5.558 1.689h-11.88c-.739 0-1.44.327-1.915.893-.476.566-.676 1.313-.547 2.042 2.073 11.746 12.226 20.271 24.141 20.271 11.914 0 22.066-8.525 24.141-20.271.128-.728-.072-1.476-.547-2.042zm-23.594 17.312c-8.46 0-15.805-5.401-18.464-13.205h8.665c2.971 0 5.853-.875 8.333-2.53.316-.211.813-.463 1.384-.463s1.066.251 1.384.463c2.481 1.655 5.362 2.529 8.332 2.529h8.829c-2.659 7.805-10.003 13.206-18.463 13.206z"/></g></g></g><g><g><g><path d="m73.25 166.831c-.474-.509-1.137-.799-1.832-.799h-12.961c-1.979 0-3.901-.584-5.558-1.689-2.558-1.707-5.767-1.704-8.316 0-1.657 1.105-3.58 1.689-5.559 1.689h-12.962c-.695 0-1.358.29-1.832.799-.473.509-.713 1.193-.661 1.886.972 13.111 12.027 23.381 25.171 23.381 13.145 0 24.201-10.27 25.171-23.381.052-.694-.188-1.377-.661-1.886zm-24.51 20.266c-9.624 0-17.853-6.867-19.803-16.065h10.087c2.97 0 5.851-.875 8.334-2.531.315-.21.812-.462 1.382-.462s1.067.251 1.384.463c2.48 1.655 5.362 2.53 8.333 2.53h10.086c-1.949 9.198-10.178 16.065-19.803 16.065z"/></g></g></g><g><g><g><path d="m161.252 8.627c-.571-.346-1.262-.448-1.907-.283-3.62.919-10.158 3.577-13.269 11.043-.931 2.233-.979 4.062-.147 5.591 1.332 2.449 4.239 2.977 7.317 3.536 4.419.802 7.647 1.633 8.958 5.039.53 1.379.987 2.612 1.396 3.717 2.61 7.04 3.69 9.954 10.059 12.341 1.65.619 2.942 3.728 3.005 7.231.067 3.745-1.306 8.723-5.396 10.428-6.733 2.806-12.615 8.462-14.982 14.409-1.388 3.486-1.452 6.834-.186 9.682 3.237 7.286 2.912 12.512-1.022 16.447-2.994 2.995-3.86 7.276-2.508 12.383.191.722.695 1.32 1.375 1.632.331.152.687.228 1.042.228.373 0 .747-.083 1.091-.25 22.078-10.708 36.344-33.472 36.344-57.992-.001-22.768-11.652-43.397-31.17-55.182zm-4.303 107.087c.01-1.808.565-3.271 1.663-4.37 5.438-5.438 6.13-12.844 2.056-22.014-.893-2.008-.35-4.264.263-5.802 1.865-4.686 6.792-9.365 12.261-11.643 5.272-2.197 8.598-8.137 8.472-15.133-.104-5.798-2.557-10.438-6.248-11.823-4.229-1.586-4.615-2.626-7.126-9.398-.416-1.122-.88-2.373-1.419-3.773-2.419-6.292-8.625-7.418-12.73-8.164-1.319-.239-3.287-.597-3.797-1.003-.001-.14.034-.525.349-1.281 2.02-4.847 6.104-6.945 8.896-7.837 17.45 10.958 27.834 29.694 27.834 50.335-.002 21.815-11.591 41.401-30.474 51.906z"/></g></g></g><g><g><g><path d="m129.347 32.656c7.881-3.284 8.463-7.959 8.108-10.455-.243-1.71-1.372-3.205-2.947-3.902-5.307-2.347-11.268-.879-17.579.676-5.938 1.463-12.083 2.976-17.837 1.282-5.075-1.493-10.064-2.38-14.831-2.637-.711-.042-1.404.228-1.906.732-9.708 9.749-15.94 22.054-18.021 35.584-.154 1 .31 1.994 1.175 2.518 5.39 3.266 7.302 5.795 7.302 6.968 0 1.136-1.918 3.432-7.325 6.164-.945.478-1.487 1.5-1.352 2.552 2.554 19.762 13.889 36.939 31.097 47.129.391.231.832.349 1.273.349.353 0 .706-.074 1.035-.225.744-.338 1.275-1.019 1.424-1.823 1.115-6.063 4.351-13.025 7.045-18.413 3.631-7.263-1.479-10.567-5.583-13.223-1.916-1.239-3.897-2.521-5.655-4.278-1.723-1.723-2.547-3.669-2.451-5.785.153-3.366 2.472-6.453 4.592-8.219 1.617-1.35 4.407-.512 8.477.922 2.743.966 5.579 1.965 8.384 1.965 6.624 0 11.945-.909 16.383-5.348 1.445-1.445 3.536-4.648 1.3-9.867-1.179-2.75-3.428-5.796-6.685-9.052-1.906-1.907-2.7-4.248-2.237-6.591.571-2.896 3.056-5.457 6.814-7.023zm-8.115 17.153c2.765 2.765 4.71 5.353 5.623 7.486 1.237 2.886.203 3.92-.238 4.362-3.247 3.248-7.17 3.883-12.848 3.883-1.949 0-4.376-.855-6.723-1.682-4.412-1.554-9.413-3.317-13.339-.046-3.806 3.172-6.193 7.596-6.386 11.833-.159 3.527 1.192 6.828 3.911 9.547 2.132 2.132 4.439 3.624 6.475 4.94 4.632 2.996 5.335 3.771 3.826 6.788-2.348 4.696-5.09 10.55-6.665 16.211-13.765-9.232-22.939-23.548-25.532-39.925 5.697-3.152 8.473-6.362 8.473-9.783 0-3.33-2.707-6.72-8.265-10.337 2.085-11.475 7.438-21.934 15.565-30.4 4.043.307 8.266 1.102 12.57 2.369 7.054 2.075 14.169.322 20.444-1.225 5.458-1.345 10.614-2.615 14.359-.958l1.012-2.286-.991 2.32c.353 2.479-3.032 4.281-5.082 5.135-5.323 2.218-8.895 6.107-9.797 10.67-.784 3.974.53 8.018 3.608 11.098z"/></g></g></g><g><g><g><path d="m142.886 76.021c-.753-.697-1.547-1.43-2.34-2.223-4.7-4.702-8.822-1.388-11.284.594-.903.727-1.836 1.478-2.795 2.004-3.182 1.745-5.157 5.153-5.157 8.895 0 4.608 3.087 8.672 7.506 9.885 2.163.593 4.201.888 6.095.888 3.922 0 7.222-1.265 9.718-3.761 2.714-2.713 3.955-5.126 3.907-7.595-.07-3.525-2.78-6.032-5.65-8.687zm-1.793 12.746c0 .001 0 .001 0 0-2.977 2.979-7.602 2.507-10.955 1.587-2.254-.618-3.828-2.7-3.828-5.063 0-1.916.981-3.645 2.562-4.511 1.346-.738 2.504-1.67 3.525-2.493 1.661-1.337 2.483-1.901 3.123-1.901.503 0 .894.35 1.491.947.841.841 1.682 1.62 2.479 2.358 2.156 1.994 4.019 3.716 4.046 5.113.019.976-.826 2.346-2.443 3.963z"/></g></g></g><g><g><g><path d="m114.947 114.323c-2.354-2.355-5.766-3.005-9.864-1.882-2.937.806-4.987 3.505-4.987 6.563 0 .716.119 1.441.354 2.156.221.669.714 1.215 1.357 1.502 3.021 1.347 6.158 2.464 9.322 3.32.216.059.436.087.653.087.626 0 1.238-.235 1.707-.673l.455-.422c1.696-1.569 3.45-3.191 3.497-5.624.034-1.672-.782-3.316-2.494-5.027zm-3.837 6.458c-2.02-.599-4.022-1.312-5.98-2.13.13-.661.618-1.208 1.275-1.388 1.579-.434 3.73-.682 5.007.596.938.938 1.027 1.377 1.032 1.377h.001c-.066.301-.712.955-1.335 1.545z"/></g></g></g></g></g></svg>