<svg enable-background="new 0 0 256 256" height="50" viewBox="0 0 256 256" width="50" xmlns="http://www.w3.org/2000/svg"><g id="Layer_39"><g><g><g><circle cx="128" cy="75.283" fill="#f98fa6" r="57"/></g></g><g><g><path d="m98.332 219.891c-.228-4.095-3.093-7.566-7.07-8.568l-12.859-3.236c-6.816-1.715-12.175-4.655-12.106-4.62-2.802-1.382-4.576-4.235-4.576-7.359v-3.865c-3.28 1.717-7.001 2.695-10.942 2.695s-7.662-.978-10.942-2.695v3.865c0 3.12-1.768 5.974-4.566 7.354-3.791 1.869-7.097 3.362-12.116 4.626l-12.858 3.236c-3.978 1.001-6.842 4.473-7.07 8.568l-.723 12.466c-.087 1.498 1.104 2.76 2.605 2.76h91.341c1.5 0 2.692-1.262 2.605-2.76z" fill="#6cadef"/></g></g><g><g><path d="m71.137 142.779c-1.553-1.629-4.078-1.779-5.848-.389-2.799 2.197-7.642 4.913-14.483 4.913-6.857 0-11.726-2.729-14.537-4.929-1.769-1.384-4.289-1.229-5.839.396l-.008.009c-2.178 2.284-3.393 5.319-3.393 8.475v19.933c0 13.063 10.688 23.75 23.75 23.75 13.063 0 23.75-10.688 23.75-23.75v-19.933c.001-3.156-1.214-6.191-3.392-8.475z" fill="#f9d0b4"/></g></g><g><g><path d="m76.054 153.085c-.519 0-1.027.044-1.524.121v17.98c0 .536-.024 1.066-.06 1.593.517.083 1.043.138 1.584.138 5.476 0 9.916-4.439 9.916-9.916 0-5.476-4.439-9.916-9.916-9.916z" fill="#f9d0b4"/></g></g><g><g><path d="m27.029 171.186v-17.98c-.497-.077-1.005-.121-1.524-.121-5.477 0-9.916 4.44-9.916 9.916 0 5.477 4.44 9.916 9.916 9.916.54 0 1.067-.055 1.584-.138-.035-.528-.06-1.057-.06-1.593z" fill="#f9d0b4"/></g></g><g><g><path d="m74.442 132.826c-.795 0-1.485-.613-1.496-1.409-.182-13.234-15.295-15.72-30.346-13.121-12.76 2.203-22.086 13.269-22.086 26.218v9.93c1.467-.858 3.169-1.358 4.992-1.358.519 0 1.027.044 1.524.121v-1.952c0-3.156 1.215-6.191 3.393-8.475l.008-.009c1.55-1.625 4.07-1.781 5.839-.396 2.811 2.2 7.68 4.929 14.537 4.929 6.841 0 11.684-2.716 14.483-4.913 1.77-1.39 4.295-1.24 5.848.389 2.178 2.284 3.393 5.319 3.393 8.475v1.952c.497-.077 1.005-.121 1.524-.121 1.844 0 3.565.513 5.044 1.39v-8.153c-.001-11.851-4.28-13.497-6.657-13.497z" fill="#5b5d60"/></g></g><g><g><path d="m252.773 219.891c-.228-4.095-3.093-7.566-7.07-8.568l-12.859-3.236c-6.816-1.715-12.175-4.655-12.106-4.62-2.802-1.382-4.576-4.235-4.576-7.359v-3.865c-3.28 1.717-7.001 2.695-10.942 2.695-3.941 0-7.662-.978-10.942-2.695v3.865c0 3.12-1.768 5.974-4.566 7.354-3.791 1.869-7.097 3.362-12.116 4.626l-12.859 3.236c-3.978 1.001-6.842 4.473-7.07 8.568l-.723 12.466c-.087 1.498 1.104 2.76 2.605 2.76h91.341c1.5 0 2.692-1.262 2.605-2.76z" fill="#70d6f9"/></g></g><g><g><path d="m225.578 142.779c-1.553-1.629-4.078-1.779-5.848-.389-2.799 2.197-7.642 4.913-14.483 4.913-6.857 0-11.726-2.729-14.537-4.929-1.769-1.384-4.289-1.229-5.839.396l-.008.009c-2.178 2.284-3.393 5.319-3.393 8.475v19.933c0 13.063 10.688 23.75 23.75 23.75 13.063 0 23.75-10.688 23.75-23.75v-19.933c.001-3.156-1.214-6.191-3.392-8.475z" fill="#f9d0b4"/></g></g><g><g><path d="m230.495 153.085c-.519 0-1.027.044-1.524.121v17.98c0 .536-.024 1.066-.06 1.593.517.083 1.043.138 1.584.138 5.477 0 9.916-4.439 9.916-9.916 0-5.476-4.44-9.916-9.916-9.916z" fill="#f9d0b4"/></g></g><g><g><path d="m181.47 171.186v-17.98c-.497-.077-1.005-.121-1.524-.121-5.476 0-9.916 4.44-9.916 9.916 0 5.477 4.44 9.916 9.916 9.916.541 0 1.067-.055 1.584-.138-.036-.528-.06-1.057-.06-1.593z" fill="#f9d0b4"/></g></g><g><g><path d="m228.882 132.826c-.795 0-1.485-.613-1.496-1.409-.182-13.234-15.295-15.72-30.346-13.121-12.76 2.203-22.086 13.269-22.086 26.218v9.93c1.467-.858 3.169-1.358 4.991-1.358.519 0 1.027.044 1.524.121v-1.952c0-3.156 1.215-6.191 3.393-8.475l.008-.009c1.55-1.625 4.07-1.781 5.839-.396 2.811 2.2 7.68 4.929 14.537 4.929 6.841 0 11.684-2.716 14.483-4.913 1.77-1.39 4.295-1.24 5.848.389 2.178 2.284 3.393 5.319 3.393 8.475v1.952c.497-.077 1.005-.121 1.524-.121 1.844 0 3.565.513 5.044 1.39v-8.153c.001-11.851-4.279-13.497-6.656-13.497z" fill="#754e34"/></g></g><g><g><path d="m66.298 203.466c-2.802-1.382-4.576-4.235-4.576-7.359v-3.865c-3.28 1.717-7.001 2.695-10.942 2.695s-7.662-.978-10.942-2.695v3.865c0 3.124-1.774 5.977-4.576 7.359-.439.216-.871.427-1.3.634 2.488 6.887 9.101 11.844 16.818 11.844 7.709 0 14.317-4.947 16.811-11.822-.842-.408-1.314-.666-1.293-.656z" fill="#f9d0b4"/></g></g><g><g><path d="m220.738 203.466c-2.802-1.382-4.576-4.235-4.576-7.359v-3.865c-3.28 1.717-7.001 2.695-10.942 2.695-3.941 0-7.662-.978-10.942-2.695v3.865c0 3.124-1.774 5.977-4.576 7.359-.439.216-.871.427-1.3.634 2.488 6.887 9.101 11.844 16.819 11.844 7.708 0 14.316-4.947 16.811-11.822-.843-.408-1.314-.666-1.294-.656z" fill="#f9d0b4"/></g></g><g><g><circle cx="128" cy="75.283" fill="#fc657e" r="44"/></g></g><g><g><path d="m66.426 70.283h-30.78l3.978-3.978c1.953-1.953 1.953-5.118.001-7.071-1.953-1.953-5.12-1.953-7.071 0l-12.515 12.514c-.938.938-1.465 2.209-1.465 3.536s.526 2.598 1.465 3.536l12.515 12.514c1.952 1.953 5.119 1.952 7.07 0 1.953-1.953 1.953-5.119 0-7.071l-3.979-3.979h30.78c2.762 0 5-2.239 5-5s-2.238-5.001-4.999-5.001z" fill="#fc657e"/></g></g><g><g><path d="m235.961 71.748-12.515-12.514c-1.953-1.952-5.118-1.953-7.071 0-1.952 1.953-1.952 5.118.001 7.071l3.978 3.978h-30.78c-2.762 0-5 2.239-5 5s2.238 5 5 5h30.78l-3.979 3.979c-1.953 1.953-1.953 5.119 0 7.071 1.952 1.953 5.119 1.952 7.07 0l12.515-12.514c.938-.938 1.465-2.209 1.465-3.536s-.526-2.598-1.464-3.535z" fill="#fc657e"/></g></g><g><g><path d="m140.506 0c-1.878 0-3.4 1.522-3.4 3.4s1.522 3.4 3.4 3.4 3.4-1.522 3.4-3.4-1.522-3.4-3.4-3.4z" fill="#87d147"/></g></g><g><g><path d="m130.206 227.3h-2.4v-2.3c0-1.8-1.4-3.2-3.2-3.2-1.7 0-3.2 1.4-3.2 3.1v2.4h-2.3c-1.8 0-3.2 1.4-3.2 3.2-.1 1.7 1.3 3.2 3.2 3.2h2.3v2.3c0 1.8 1.4 3.2 3.2 3.2 1.7 0 3.2-1.4 3.2-3.1v-2.4h2.3c1.8 0 3.2-1.4 3.2-3.2 0-1.7-1.4-3.2-3.1-3.2z" fill="#70d6f9"/></g></g><g><g><path d="m149.506 249.2c-1.878 0-3.4 1.522-3.4 3.4s1.522 3.4 3.4 3.4 3.4-1.522 3.4-3.4-1.522-3.4-3.4-3.4z" fill="#fc657e"/></g></g><g><g><path d="m111.288 141.4c-3.1-.6-5.6-3-6.2-6.1 0-.1-.3-.1-.3 0-.6 3.1-3.1 5.5-6.2 6.1-.1 0-.1.2 0 .3 3.1.6 5.6 3 6.2 6.1 0 .1.3.1.3 0 .6-3.1 3.1-5.5 6.2-6.1.1-.1.1-.3 0-.3z" fill="#f5c84c"/></g></g><g><g><path d="m183.288 22.4c-4.5-.8-8-4.3-8.9-8.7 0-.2-.4-.2-.4 0-.9 4.4-4.4 7.9-8.9 8.7-.2 0-.2.3 0 .4 4.5.8 8 4.3 8.9 8.7 0 .2.4.2.4 0 .9-4.4 4.4-7.9 8.9-8.7.2-.1.2-.4 0-.4z" fill="#f5c84c"/></g></g><g><g><g><path d="m100.828 219.752c-.29-5.216-3.889-9.578-8.956-10.854l-12.858-3.236c-6.221-1.566-11.221-4.23-11.484-4.372-.041-.023-.083-.045-.126-.066-1.963-.968-3.182-2.928-3.182-5.117v-3.865c0-.875-.457-1.686-1.205-2.139-.749-.453-1.681-.482-2.454-.076-3.056 1.599-6.347 2.41-9.782 2.41-3.437 0-6.728-.811-9.783-2.41-.773-.406-1.705-.376-2.454.076-.748.453-1.205 1.264-1.205 2.139v3.865c0 2.155-1.245 4.162-3.171 5.111-3.441 1.697-6.691 3.203-11.621 4.444l-12.858 3.236c-5.067 1.276-8.666 5.638-8.956 10.848l-.723 12.465c-.081 1.398.424 2.785 1.385 3.803.961 1.019 2.315 1.603 3.716 1.603h91.339c1.4 0 2.756-.584 3.717-1.603.961-1.018 1.466-2.404 1.385-3.802zm-4.378 12.865h-91.341l-.108-.116.723-12.472c.168-3.019 2.251-5.543 5.185-6.282l12.858-3.236c5.406-1.361 8.91-2.982 12.611-4.808 3.62-1.785 5.96-5.551 5.96-9.596v-.08c5.427 1.855 11.455 1.856 16.884 0v.08c0 4.068 2.245 7.717 5.868 9.55.703.435 1.84.959 3.73 1.776 2.072.895 5.311 2.156 8.973 3.077l12.858 3.236c2.934.738 5.017 3.263 5.185 6.289l.694 12.546c-.032.036-.064.036-.08.036z"/></g></g></g><g><g><g><path d="m72.947 141.054c-2.442-2.56-6.398-2.832-9.202-.63-2.545 1.998-6.854 4.379-12.939 4.379-6.098 0-10.433-2.391-12.996-4.398-2.801-2.191-6.751-1.916-9.197.649-2.633 2.761-4.083 6.383-4.083 10.199v19.933c0 14.475 11.776 26.25 26.251 26.25s26.25-11.776 26.25-26.25v-19.933c-.001-3.815-1.451-7.438-4.084-10.199zm-.917 30.132c0 11.718-9.532 21.25-21.25 21.25s-21.251-9.533-21.251-21.25v-19.933c0-2.525.96-4.922 2.711-6.758.354-.372.832-.562 1.316-.562.408 0 .822.135 1.172.409 3.182 2.491 8.554 5.46 16.077 5.46 7.513 0 12.862-2.961 16.027-5.446.767-.603 1.84-.538 2.495.147 1.742 1.827 2.702 4.224 2.702 6.749v19.934z"/></g></g></g><g><g><path d="m83.123 220.771c-1.381 0-2.5 1.119-2.5 2.5v11.457c0 1.381 1.119 2.5 2.5 2.5s2.5-1.119 2.5-2.5v-11.457c0-1.38-1.119-2.5-2.5-2.5z"/></g></g><g><g><path d="m18.437 220.771c-1.381 0-2.5 1.119-2.5 2.5v11.457c0 1.381 1.119 2.5 2.5 2.5s2.5-1.119 2.5-2.5v-11.457c0-1.38-1.12-2.5-2.5-2.5z"/></g></g><g><g><g><path d="m74.146 150.736c-1.218.189-2.116 1.237-2.116 2.47v17.98c0 .479-.022.955-.054 1.426-.086 1.288.821 2.429 2.096 2.634.71.115 1.358.171 1.982.171 6.847 0 12.416-5.57 12.416-12.416.001-7.47-6.632-13.463-14.324-12.265zm2.884 19.618v-14.704c3.63.479 6.44 3.594 6.44 7.352s-2.81 6.873-6.44 7.352z"/></g></g></g><g><g><g><path d="m29.529 171.186v-17.98c0-1.233-.898-2.281-2.116-2.47-7.692-1.2-14.324 4.795-14.324 12.266 0 6.846 5.569 12.416 12.416 12.416.624 0 1.272-.056 1.982-.171 1.274-.206 2.182-1.347 2.096-2.634-.031-.473-.054-.947-.054-1.427zm-5-.832c-3.63-.479-6.44-3.594-6.44-7.352s2.811-6.873 6.44-7.352z"/></g></g></g><g><g><g><path d="m75.407 130.382c-.284-4.36-2.038-7.907-5.223-10.551-7.666-6.366-20.839-5.237-28.01-3.999-14 2.417-24.161 14.48-24.161 28.682v9.929c0 .896.479 1.723 1.256 2.168.774.445 1.732.442 2.505-.01 1.461-.853 3.108-1.198 4.871-.925.72.111 1.456-.097 2.011-.572.554-.475.873-1.168.873-1.898v-1.953c0-2.525.96-4.922 2.711-6.758.653-.686 1.724-.752 2.488-.153 3.182 2.491 8.554 5.46 16.077 5.46 7.513 0 12.862-2.961 16.027-5.446.767-.603 1.84-.538 2.495.147 1.742 1.827 2.702 4.224 2.702 6.749v1.953c0 .73.319 1.423.873 1.898.556.475 1.288.683 2.011.572 1.778-.275 3.44.079 4.91.949.393.233.833.35 1.274.35.427 0 .854-.109 1.237-.328.78-.445 1.263-1.274 1.263-2.172v-8.153c.002-12.675-4.757-15.53-8.19-15.939zm3.192 20.47c-.521-.11-1.05-.187-1.582-.229-.15-3.583-1.582-6.961-4.07-9.57-2.441-2.56-6.397-2.832-9.201-.63-2.545 1.998-6.854 4.379-12.939 4.379-6.098 0-10.433-2.391-12.996-4.398-2.8-2.19-6.75-1.917-9.197.649-2.487 2.609-3.919 5.986-4.069 9.569-.515.04-1.025.113-1.529.217v-6.327c0-11.762 8.416-21.752 20.013-23.755 10.758-1.858 19.494-.793 23.964 2.919 2.279 1.893 3.41 4.436 3.456 7.773.029 2.137 1.821 3.875 3.995 3.875 2.604 0 4.157 4.111 4.157 10.997v4.531z"/></g></g></g><g><g><g><path d="m255.269 219.752c-.29-5.216-3.889-9.578-8.956-10.854l-12.858-3.236c-6.218-1.565-11.217-4.228-11.484-4.372-.041-.023-.083-.045-.126-.066-1.963-.968-3.182-2.928-3.182-5.117v-3.865c0-.875-.457-1.686-1.205-2.139-.75-.453-1.681-.482-2.454-.076-3.056 1.599-6.347 2.41-9.783 2.41s-6.727-.811-9.782-2.41c-.774-.406-1.705-.376-2.454.076-.748.453-1.205 1.264-1.205 2.139v3.865c0 2.155-1.245 4.162-3.171 5.111-3.441 1.697-6.691 3.203-11.621 4.444l-12.858 3.236c-5.067 1.276-8.666 5.638-8.956 10.847l-.724 12.466c-.081 1.398.424 2.784 1.385 3.802.961 1.019 2.316 1.603 3.717 1.603h91.341c1.4 0 2.755-.584 3.716-1.603.961-1.018 1.466-2.404 1.385-3.802zm-4.378 12.865h-91.341l-.109-.115.724-12.472c.168-3.019 2.251-5.543 5.185-6.282l12.858-3.236c5.406-1.361 8.91-2.982 12.611-4.808 3.62-1.785 5.96-5.551 5.96-9.596v-.08c5.43 1.856 11.458 1.855 16.884 0v.08c0 4.068 2.245 7.717 5.868 9.55.703.435 1.84.959 3.73 1.776 2.072.895 5.311 2.156 8.973 3.077l12.858 3.236c2.934.739 5.017 3.263 5.185 6.288l.693 12.547c-.032.035-.064.035-.079.035z"/></g></g></g><g><g><g><path d="m227.388 141.054c-2.442-2.56-6.397-2.832-9.202-.63-2.544 1.998-6.854 4.379-12.939 4.379-6.098 0-10.433-2.392-12.996-4.397-2.799-2.191-6.75-1.917-9.197.649-2.633 2.761-4.083 6.383-4.083 10.199v19.933c0 14.475 11.775 26.25 26.25 26.25s26.251-11.776 26.251-26.25v-19.933c-.001-3.816-1.451-7.439-4.084-10.2zm-.917 30.132c0 11.718-9.533 21.25-21.251 21.25s-21.25-9.533-21.25-21.25v-19.933c0-2.525.96-4.922 2.711-6.758.354-.372.831-.562 1.315-.562.408 0 .822.135 1.172.409 3.184 2.491 8.557 5.46 16.078 5.46 7.513 0 12.862-2.961 16.027-5.446.767-.603 1.841-.539 2.496.148 1.741 1.827 2.701 4.224 2.701 6.749v19.933z"/></g></g></g><g><g><path d="m237.563 220.771c-1.381 0-2.5 1.119-2.5 2.5v11.457c0 1.381 1.119 2.5 2.5 2.5s2.5-1.119 2.5-2.5v-11.457c0-1.38-1.119-2.5-2.5-2.5z"/></g></g><g><g><path d="m172.877 220.771c-1.381 0-2.5 1.119-2.5 2.5v11.457c0 1.381 1.119 2.5 2.5 2.5s2.5-1.119 2.5-2.5v-11.457c0-1.38-1.119-2.5-2.5-2.5z"/></g></g><g><g><g><path d="m228.587 150.736c-1.218.189-2.116 1.237-2.116 2.47v17.98c0 .479-.022.955-.054 1.426-.086 1.288.821 2.429 2.096 2.634.71.115 1.358.171 1.982.171 6.846 0 12.415-5.57 12.415-12.416 0-7.47-6.632-13.463-14.323-12.265zm2.884 19.618v-14.704c3.629.479 6.439 3.594 6.439 7.352s-2.81 6.873-6.439 7.352z"/></g></g></g><g><g><g><path d="m183.97 171.186v-17.98c0-1.233-.898-2.281-2.116-2.47-7.697-1.2-14.324 4.795-14.324 12.266 0 6.846 5.569 12.416 12.416 12.416.624 0 1.272-.056 1.982-.171 1.274-.206 2.182-1.347 2.096-2.634-.032-.473-.054-.947-.054-1.427zm-5-.832c-3.63-.479-6.44-3.594-6.44-7.352s2.811-6.873 6.44-7.352z"/></g></g></g><g><g><g><path d="m229.847 130.382c-.284-4.361-2.037-7.907-5.222-10.551-7.665-6.364-20.839-5.237-28.01-3.999-14 2.417-24.161 14.48-24.161 28.682v9.929c0 .896.479 1.723 1.256 2.168.774.445 1.732.442 2.505-.01 1.461-.853 3.106-1.198 4.871-.925.719.111 1.456-.097 2.011-.572.554-.475.873-1.168.873-1.898v-1.953c0-2.525.96-4.922 2.711-6.758.652-.686 1.723-.752 2.487-.153 3.184 2.491 8.557 5.46 16.078 5.46 7.513 0 12.862-2.961 16.027-5.446.767-.603 1.84-.538 2.495.147 1.742 1.827 2.702 4.224 2.702 6.749v1.953c0 .73.319 1.423.873 1.898.556.475 1.29.683 2.011.572 1.78-.275 3.44.079 4.91.949.393.233.833.35 1.274.35.427 0 .854-.109 1.237-.328.781-.445 1.263-1.274 1.263-2.172v-8.153c.001-12.676-4.759-15.53-8.191-15.939zm3.192 20.47c-.521-.11-1.05-.187-1.582-.229-.15-3.583-1.582-6.961-4.07-9.57-2.441-2.56-6.396-2.832-9.201-.63-2.544 1.998-6.854 4.379-12.939 4.379-6.098 0-10.433-2.392-12.996-4.397-2.799-2.191-6.75-1.917-9.197.649-2.487 2.609-3.919 5.986-4.069 9.569-.515.04-1.025.113-1.529.217v-6.327c0-11.762 8.416-21.752 20.013-23.755 10.758-1.858 19.494-.793 23.964 2.919 2.279 1.893 3.409 4.436 3.455 7.776.031 2.135 1.824 3.872 3.996 3.872 2.604 0 4.157 4.111 4.157 10.997v4.53z"/></g></g></g><g><g><g><path d="m128 28.783c-25.641 0-46.5 20.86-46.5 46.5s20.859 46.5 46.5 46.5 46.5-20.86 46.5-46.5-20.859-46.5-46.5-46.5zm0 88c-22.883 0-41.5-18.617-41.5-41.5s18.617-41.5 41.5-41.5 41.5 18.617 41.5 41.5-18.617 41.5-41.5 41.5z"/></g></g></g><g><g><path d="m150.165 60.103c-.968-.372-2.062-.107-2.754.662l-7.035 7.817-7.035-7.817c-.691-.769-1.788-1.032-2.754-.662-.967.371-1.604 1.299-1.604 2.334v25.693c0 1.381 1.119 2.5 2.5 2.5s2.5-1.119 2.5-2.5v-19.178l4.535 5.039c.949 1.054 2.768 1.054 3.717 0l4.535-5.039v19.178c0 1.381 1.119 2.5 2.5 2.5s2.5-1.119 2.5-2.5v-25.693c0-1.035-.638-1.963-1.605-2.334z"/></g></g><g><g><path d="m120.565 85.63h-11.335v-8.37c0-1.346 1.095-2.441 2.44-2.441h3.953c4.104 0 7.441-3.338 7.441-7.441s-3.338-7.441-7.441-7.441h-8.894c-1.381 0-2.5 1.119-2.5 2.5s1.119 2.5 2.5 2.5h8.894c1.347 0 2.441 1.095 2.441 2.441s-1.095 2.441-2.441 2.441h-3.953c-4.103 0-7.44 3.338-7.44 7.441v10.87c0 1.381 1.119 2.5 2.5 2.5h13.835c1.381 0 2.5-1.119 2.5-2.5s-1.119-2.5-2.5-2.5z"/></g></g><g><g><g><path d="m66.426 67.783h-24.759c2.646-2.94 2.555-7.487-.274-10.316-1.417-1.417-3.3-2.197-5.304-2.197s-3.888.78-5.303 2.196l-12.514 12.513c-1.418 1.416-2.198 3.3-2.198 5.304s.78 3.888 2.197 5.303l12.514 12.514c1.416 1.417 3.3 2.197 5.304 2.197s3.888-.78 5.303-2.196c1.417-1.417 2.197-3.3 2.197-5.304 0-1.87-.68-3.636-1.923-5.014h24.76c4.136 0 7.5-3.364 7.5-7.5s-3.364-7.5-7.5-7.5zm0 10h-30.78c-1.011 0-1.923.609-2.31 1.543s-.173 2.009.542 2.724l3.979 3.979c.473.472.732 1.1.732 1.768s-.26 1.295-.733 1.769c-.941.943-2.589.944-3.534 0l-12.516-12.516c-.472-.472-.731-1.099-.731-1.767s.26-1.295.732-1.768l12.516-12.515c.471-.472 1.099-.731 1.767-.731s1.296.26 1.769.732c.974.975.974 2.561-.001 3.535l-3.979 3.978c-.715.715-.929 1.791-.542 2.725s1.299 1.543 2.31 1.543h30.78c1.379 0 2.5 1.122 2.5 2.5s-1.122 2.501-2.501 2.501z"/></g></g></g><g><g><g><path d="m237.728 69.979-12.514-12.513c-2.928-2.924-7.685-2.923-10.606.001-2.829 2.83-2.921 7.376-.274 10.316h-24.759c-4.136 0-7.5 3.364-7.5 7.5s3.364 7.5 7.5 7.5h24.76c-1.243 1.379-1.923 3.144-1.923 5.014 0 2.003.78 3.887 2.196 5.303 1.416 1.417 3.3 2.197 5.304 2.197s3.888-.78 5.303-2.197l12.514-12.513c1.418-1.416 2.198-3.3 2.198-5.304s-.781-3.888-2.199-5.304zm-3.535 7.072-12.516 12.515c-.941.943-2.589.944-3.534-.001-.473-.472-.732-1.1-.732-1.768s.26-1.295.732-1.768l3.979-3.979c.715-.715.929-1.79.542-2.724-.387-.935-1.299-1.543-2.31-1.543h-30.78c-1.379 0-2.5-1.122-2.5-2.5s1.121-2.5 2.5-2.5h30.78c1.011 0 1.923-.609 2.31-1.543s.173-2.009-.542-2.725l-3.979-3.978c-.975-.975-.975-2.561-.001-3.535s2.561-.976 3.536 0l12.515 12.514h.001c.472.472.731 1.099.731 1.767s-.259 1.296-.732 1.768z"/></g></g></g><g><g><g><path d="m68.682 201.873c-.65-.315-1.059-.532-1.158-.585-.039-.022-.079-.043-.12-.063-1.963-.968-3.182-2.928-3.182-5.117v-3.865c0-.875-.457-1.686-1.205-2.139-.749-.453-1.681-.482-2.454-.076-3.056 1.599-6.347 2.41-9.782 2.41-3.437 0-6.728-.811-9.783-2.41-.773-.406-1.705-.376-2.454.076-.748.453-1.205 1.264-1.205 2.139v3.865c0 2.188-1.219 4.149-3.182 5.117 0 0 0 0-.001 0-.431.213-.855.42-1.277.623-1.156.556-1.704 1.896-1.269 3.103 2.917 8.071 10.621 13.495 19.171 13.495 8.538 0 16.238-5.413 19.161-13.469.436-1.206-.108-2.545-1.26-3.104zm-17.902 11.571c-5.717 0-10.933-3.217-13.58-8.192 3.191-1.934 5.138-5.357 5.138-9.145v-.08c5.427 1.855 11.455 1.856 16.884 0v.08c0 3.787 1.946 7.211 5.138 9.145-2.647 4.975-7.866 8.192-13.58 8.192z"/></g></g></g><g><g><g><path d="m223.122 201.873c-.65-.315-1.059-.532-1.158-.585-.039-.022-.079-.043-.12-.063-1.963-.968-3.182-2.928-3.182-5.117v-3.865c0-.875-.457-1.686-1.205-2.139-.75-.453-1.681-.482-2.454-.076-3.056 1.599-6.347 2.41-9.783 2.41s-6.727-.811-9.782-2.41c-.774-.406-1.705-.376-2.454.076-.748.453-1.205 1.264-1.205 2.139v3.865c0 2.188-1.219 4.148-3.181 5.116-.432.213-.856.42-1.279.624-1.156.556-1.704 1.896-1.269 3.103 2.917 8.071 10.62 13.495 19.17 13.495 8.538 0 16.239-5.413 19.162-13.469.436-1.206-.108-2.545-1.26-3.104zm-17.902 11.571c-5.716 0-10.933-3.217-13.579-8.192 3.191-1.934 5.138-5.357 5.138-9.145v-.08c5.43 1.856 11.458 1.855 16.884 0v.08c0 3.787 1.946 7.211 5.138 9.145-2.648 4.975-7.866 8.192-13.581 8.192z"/></g></g></g></g></g></svg>
