<svg id="Layer_1" enable-background="new 0 0 128 128" height="50" viewBox="0 0 128 128" width="50" xmlns="http://www.w3.org/2000/svg"><g><g fill="#e6e7e8"><path d="m101.146 64.858-.015-4.797h.731c1.831 0 3.32-1.489 3.32-3.32 0-.68-.207-1.311-.558-1.838.988-.607 1.655-1.689 1.655-2.931v-4.253c0-1.902-1.548-3.449-3.45-3.449h-28.438c-1.902 0-3.449 1.547-3.449 3.449v4.253c0 1.243.667 2.325 1.655 2.932-.352.527-.558 1.158-.558 1.838 0 1.831 1.489 3.32 3.32 3.32h.729l-.012 4.797c-3.481 0-6.313 2.832-6.313 6.313v48.517c0 3.48 2.832 6.313 6.313 6.313h25.07c3.48 0 6.313-2.832 6.313-6.313v-48.518c-.001-3.481-2.833-6.313-6.313-6.313z"/><path d="m57.588 93.415h-2.225v-54.643c0-1.654-1.346-3-3-3h-3.101v-3.351c0-2.151-1.75-3.902-3.901-3.902h-1.446v-21.519c0-.553-.448-1-1-1s-1 .447-1 1v21.52h-1.446c-2.151 0-3.902 1.751-3.902 3.902v3.351h-3.101c-1.654 0-3 1.346-3 3v54.643h-2.225c-2.041 0-3.7 1.66-3.7 3.7s1.66 3.7 3.7 3.7h8.888v17.784h-5.792c-2.041 0-3.701 1.66-3.701 3.7s1.66 3.7 3.701 3.7h23.155c2.041 0 3.7-1.66 3.7-3.7s-1.66-3.7-3.7-3.7h-5.792v-17.783h8.888c2.041 0 3.701-1.66 3.701-3.701-.001-2.041-1.661-3.701-3.701-3.701z"/></g><g><g><path d="m97.146 61.858c-.56 0-1.015-.454-1.015-1.015v-5.782h1.731c1.282 0 2.32-1.039 2.32-2.32 0-1.282-1.039-2.32-2.32-2.32h-26.503c-1.282 0-2.321 1.039-2.321 2.32 0 1.282 1.039 2.32 2.32 2.32h1.731v5.782c0 .56-.454 1.015-1.015 1.015-2.934 0-5.313 2.379-5.313 5.313v48.516c0 2.934 2.379 5.313 5.313 5.313h25.071c2.934 0 5.313-2.379 5.313-5.313v-48.516c.001-2.934-2.378-5.313-5.312-5.313z" fill="#d4fbff"/><path d="m66.762 70.52v45.167c0 2.934 2.379 5.313 5.313 5.313h25.071c2.934 0 5.313-2.379 5.313-5.313v-45.167z" fill="#fa759e"/><path d="m97.146 118h-25.071c-2.934 0-5.313-2.379-5.313-5.313v3c0 2.934 2.379 5.313 5.313 5.313h25.071c2.934 0 5.313-2.379 5.313-5.313v-3c0 2.934-2.379 5.313-5.313 5.313z" fill="#fff"/><path d="m66.762 76.391h35.696v26.444h-35.696z" fill="#0089ef"/><path d="m92.95 86.423h-5.149v-5.149c0-.358-.29-.648-.648-.648h-5.085c-.358 0-.648.29-.648.648v5.149h-5.149c-.358 0-.648.29-.648.648v5.085c0 .358.29.648.648.648h5.149v5.149c0 .358.29.648.648.648h5.085c.358 0 .648-.29.648-.648v-5.149h5.149c.358 0 .648-.29.648-.648v-5.085c-.001-.358-.291-.648-.648-.648z" fill="#fff"/><path d="m98.83 50.421h-28.439c-1.353 0-2.449-1.097-2.449-2.449v-4.252c0-1.353 1.097-2.449 2.449-2.449h28.439c1.353 0 2.449 1.097 2.449 2.449v4.252c0 1.352-1.097 2.449-2.449 2.449z" fill="#6dc9f7"/></g><g><g><g><g><path d="m27.467 90.415h22.896v-55.643c0-1.105-.895-2-2-2h-18.896c-1.105 0-2 .895-2 2z" fill="#d4fbff"/><path d="m27.466 47.842h22.896v42.573h-22.896z" fill="#fa759e" transform="matrix(-1 0 0 -1 77.829 138.257)"/><path d="m33.567 32.772h10.695v-4.351c0-1.603-1.299-2.902-2.902-2.902h-4.892c-1.603 0-2.902 1.299-2.902 2.902z" fill="#6dc9f7"/></g><path d="m24.242 95.816h29.346c1.491 0 2.7-1.209 2.7-2.7 0-1.491-1.209-2.7-2.7-2.7h-29.346c-1.491 0-2.7 1.209-2.7 2.7 0 1.491 1.209 2.7 2.7 2.7z" fill="#d4fbff"/><path d="m27.337 121h23.155c1.491 0 2.7-1.209 2.7-2.7 0-1.491-1.209-2.7-2.7-2.7h-23.155c-1.491 0-2.7 1.209-2.7 2.7 0 1.491 1.209 2.7 2.7 2.7z" fill="#d4fbff"/><g><path d="m34.13 95.816h9.57v19.783h-9.57z" fill="#d4fbff" transform="matrix(-1 0 0 -1 77.829 211.415)"/><g fill="#3a2c60"><path d="m97.145 60.858-.015-4.797h.731c1.831 0 3.32-1.489 3.32-3.32 0-.68-.207-1.311-.558-1.838.988-.607 1.655-1.689 1.655-2.932v-4.253c0-1.902-1.547-3.449-3.449-3.449h-28.438c-1.902 0-3.45 1.547-3.45 3.449v4.253c0 1.243.667 2.324 1.655 2.931-.352.527-.558 1.158-.558 1.838 0 1.831 1.489 3.32 3.32 3.32h.729l-.012 4.797c-3.48 0-6.313 2.832-6.313 6.313v48.517c0 3.48 2.832 6.313 6.313 6.313h25.07c3.481 0 6.313-2.832 6.313-6.313v-48.516c.001-3.481-2.831-6.313-6.313-6.313zm-23.055-.014v-4.782h21.041v4.782c0 .005.001.01.001.015h-21.044c0-.005.002-.01.002-.015zm-5.149-17.125c0-.799.65-1.449 1.45-1.449h28.439c.799 0 1.449.65 1.449 1.449v4.253c0 .799-.65 1.449-1.449 1.449h-28.439c-.8 0-1.45-.65-1.45-1.449zm2.417 10.343c-.728 0-1.32-.593-1.32-1.32s.593-1.32 1.32-1.32h26.504c.728 0 1.32.593 1.32 1.32s-.593 1.32-1.32 1.32h-1.731-23.041zm.717 8.796c.026 0 .05-.007.075-.008.013 0 .024.008.038.008h24.844c.013 0 .025-.007.038-.008.026.001.05.008.075.008 2.379 0 4.313 1.935 4.313 4.313v8.221h-33.695v-8.221c0-2.378 1.934-4.313 4.312-4.313zm29.384 38.978h-33.696v-24.444h33.696zm-4.314 18.164h-25.07c-2.378 0-4.313-1.935-4.313-4.313v-11.852h33.696v11.852c.001 2.378-1.934 4.313-4.313 4.313z"/><path d="m50.363 66.797c-.552 0-1 .447-1 1v9.287c0 .553.448 1 1 1s1-.447 1-1v-9.287c0-.553-.448-1-1-1z"/><path d="m53.588 89.415h-2.225v-8.662c0-.553-.448-1-1-1s-1 .447-1 1v8.662h-20.896v-13.097h7.921c.552 0 1-.447 1-1s-.448-1-1-1h-7.921v-8.645h7.921c.552 0 1-.447 1-1s-.448-1-1-1h-7.921v-8.645h7.921c.552 0 1-.447 1-1s-.448-1-1-1h-7.921v-8.646h7.921c.552 0 1-.447 1-1s-.448-1-1-1h-7.921v-7.611c0-.552.449-1 1-1h18.896c.551 0 1 .448 1 1v29.04c0 .553.448 1 1 1s1-.447 1-1v-29.04c0-1.654-1.346-3-3-3h-3.101v-3.351c0-2.151-1.75-3.902-3.902-3.902h-1.446v-21.518c0-.553-.448-1-1-1s-1 .447-1 1v21.52h-1.446c-2.151 0-3.902 1.751-3.902 3.902v3.351h-3.101c-1.654 0-3 1.346-3 3v8.609.002s0 .001 0 .002v10.641.002s0 .001 0 .002v10.64.002s0 .001 0 .002v10.64.002s0 .001 0 .002v14.094h-2.225c-2.041 0-3.7 1.66-3.7 3.7s1.66 3.7 3.7 3.7h8.888v17.787h-5.792c-2.041 0-3.7 1.66-3.7 3.7s1.66 3.7 3.7 3.7h23.155c2.041 0 3.7-1.66 3.7-3.7s-1.66-3.7-3.7-3.7h-5.791v-17.784h8.888c2.041 0 3.7-1.66 3.7-3.701 0-2.04-1.66-3.7-3.7-3.7zm-19.021-60.993c0-1.049.853-1.902 1.902-1.902h4.892c1.049 0 1.902.854 1.902 1.902v3.351h-8.695v-3.351zm17.625 89.878c0 .938-.763 1.7-1.7 1.7h-23.155c-.938 0-1.7-.763-1.7-1.7s.763-1.7 1.7-1.7h23.155c.938 0 1.7.762 1.7 1.7zm-9.492-3.7h-7.57v-17.784h7.57zm10.888-19.784-29.346-.001c-.938 0-1.7-.763-1.7-1.7s.763-1.7 1.7-1.7h29.346c.938 0 1.7.763 1.7 1.7 0 .939-.763 1.701-1.7 1.701z"/></g></g></g></g></g></g></g></svg>
